<svg width="181" height="23" viewBox="0 0 181 23" fill="none" xmlns="http://www.w3.org/2000/svg">
<path d="M0 10.8174H180.849" stroke="#C0C0C0" stroke-dasharray="3"/>
<path fill-rule="evenodd" clip-rule="evenodd" d="M88.7384 18.9436H90.4418C90.5432 18.9436 90.6547 18.8965 90.675 18.8212L94.9537 12.8303C95.0044 12.7267 95.0855 12.7078 95.1869 12.7078L100.054 12.7078C100.885 12.7078 101.554 12.0861 101.554 11.3137C101.554 10.5413 100.885 9.9196 100.054 9.9196L95.0247 9.9196C94.9233 9.9196 94.8422 9.90076 94.7915 9.79714L90.3607 3.79682C90.2796 3.72146 90.2289 3.67437 90.1275 3.67437L88.343 3.69321C88.1402 3.69321 87.978 3.8816 88.0591 4.05115L90.3607 9.56165C90.4418 9.73121 90.2796 9.9196 90.0768 9.9196L84.7436 9.9196C84.6422 9.9196 84.5307 9.8725 84.5104 9.79714L83.1112 7.81902C83.0605 7.7154 82.9794 7.69656 82.878 7.69656L81.8438 7.69656C81.641 7.69656 81.4991 7.86611 81.5599 8.05451L82.4724 10.4848C82.442 10.513 82.4724 10.5413 82.4724 10.579L82.4724 11.9731C82.4724 12.0296 82.4724 12.0296 82.4522 12.0484L81.57 14.5447C81.4889 14.7142 81.6512 14.9026 81.8539 14.9026L82.7259 14.9026C82.8273 14.9026 82.9388 14.8555 82.9591 14.7801L84.3786 12.7832C84.4293 12.6796 84.5104 12.6607 84.6118 12.6607H90.2694C90.4722 12.6607 90.6142 12.8303 90.5533 13.0187L88.4849 18.5574C88.3937 18.7741 88.5356 18.9436 88.7384 18.9436Z" fill="#12407D"/>
</svg>
