<svg width="24" height="24" viewBox="0 0 24 24" fill="none" xmlns="http://www.w3.org/2000/svg">
<path d="M10.5 12.4425L8.5575 10.5L7.5 11.5575L10.5 14.5575L16.5 8.5575L15.4425 7.5L10.5 12.4425Z" fill="#2174E3"/>
<path d="M12 22L7.368 19.5303C6.0475 18.8277 4.94323 17.7789 4.1737 16.4963C3.40416 15.2137 2.99842 13.7457 3 12.25V2.5C3.0004 2.1023 3.15856 1.721 3.43978 1.43978C3.721 1.15856 4.1023 1.0004 4.5 1H19.5C19.8977 1.0004 20.279 1.15856 20.5602 1.43978C20.8414 1.721 20.9996 2.1023 21 2.5V12.25C21.0016 13.7457 20.5958 15.2137 19.8263 16.4963C19.0568 17.7789 17.9525 18.8277 16.632 19.5303L12 22ZM4.5 2.5V12.25C4.49876 13.4739 4.83083 14.6749 5.46058 15.7243C6.09032 16.7737 6.99396 17.6318 8.0745 18.2065L12 20.2997L15.9255 18.2073C17.0062 17.6325 17.9099 16.7743 18.5396 15.7248C19.1694 14.6752 19.5014 13.474 19.5 12.25V2.5H4.5Z" fill="#2174E3"/>
</svg>
