<svg width="24" height="24" viewBox="0 0 24 24" fill="none" xmlns="http://www.w3.org/2000/svg">
<path d="M21.3333 3.75C21.7 3.75 22 4.0875 22 4.5V6H2V4.5C2 4.0875 2.3 3.75 2.66667 3.75H21.3333ZM22 10.5V19.5C22 19.9125 21.7 20.25 21.3333 20.25H2.66667C2.3 20.25 2 19.9125 2 19.5V10.5H22ZM2.66667 1.5C1.19583 1.5 0 2.84531 0 4.5V19.5C0 21.1547 1.19583 22.5 2.66667 22.5H21.3333C22.8042 22.5 24 21.1547 24 19.5V4.5C24 2.84531 22.8042 1.5 21.3333 1.5H2.66667ZM5 15.75C4.44583 15.75 4 16.2516 4 16.875C4 17.4984 4.44583 18 5 18H7C7.55417 18 8 17.4984 8 16.875C8 16.2516 7.55417 15.75 7 15.75H5ZM10.3333 15.75C9.77917 15.75 9.33333 16.2516 9.33333 16.875C9.33333 17.4984 9.77917 18 10.3333 18H15C15.5542 18 16 17.4984 16 16.875C16 16.2516 15.5542 15.75 15 15.75H10.3333Z" fill="#242424"/>
</svg>
