<svg width="24" height="24" viewBox="0 0 24 24" fill="none" xmlns="http://www.w3.org/2000/svg">
<path d="M17.928 19.6339H20.066C20.2541 19.6368 20.44 19.5942 20.608 19.5096C20.776 19.425 20.9211 19.3011 21.0307 19.1483C21.1404 18.9955 21.2114 18.8184 21.2378 18.6321C21.2641 18.4459 21.245 18.2561 21.182 18.0789C20.6368 16.912 19.7737 15.9226 18.6917 15.2239C17.6098 14.5253 16.3528 14.1457 15.065 14.1289M15.065 11.3699C15.5462 11.37 16.0228 11.2753 16.4675 11.0912C16.9121 10.9072 17.3161 10.6373 17.6565 10.297C17.9968 9.9568 18.2668 9.55284 18.451 9.10823C18.6352 8.66363 18.73 8.1871 18.73 7.70585C18.7313 7.22376 18.6375 6.74615 18.4539 6.3004C18.2703 5.85464 18.0005 5.4495 17.66 5.10819C17.3196 4.76688 16.9151 4.49612 16.4698 4.31142C16.0245 4.12672 15.5471 4.03172 15.065 4.03185M9.34 11.4849C10.4417 11.4822 11.4974 11.0426 12.2755 10.2625C13.0535 9.48245 13.4903 8.4256 13.49 7.32385C13.49 6.22294 13.0527 5.16711 12.2742 4.38865C11.4957 3.61019 10.4399 3.17285 9.339 3.17285C8.23809 3.17285 7.18226 3.61019 6.4038 4.38865C5.62534 5.16711 5.188 6.22294 5.188 7.32385C5.188 8.42559 5.62505 9.48234 6.40325 10.2622C7.18146 11.0421 8.23726 11.4815 9.339 11.4839M14.025 20.8269C14.3772 20.8264 14.7225 20.7284 15.0224 20.5438C15.3224 20.3592 15.5654 20.0951 15.7246 19.7809C15.8837 19.4666 15.9528 19.1145 15.9241 18.7634C15.8954 18.4123 15.7701 18.0761 15.562 17.7919C14.8333 16.8241 13.895 16.0339 12.8175 15.4804C11.7399 14.9269 10.5511 14.6245 9.34 14.5959C8.12886 14.6246 6.93994 14.9271 5.86237 15.4808C4.78481 16.0345 3.84657 16.8249 3.118 17.7929C2.91066 18.0771 2.7859 18.4131 2.75751 18.7638C2.72912 19.1145 2.79819 19.4662 2.95711 19.7801C3.11603 20.094 3.3586 20.3579 3.65805 20.5426C3.9575 20.7273 4.30217 20.8257 4.654 20.8269H14.025Z" stroke="black" stroke-linecap="round" stroke-linejoin="round"/>
</svg>
