<svg width="250" height="229" viewBox="0 0 250 229" fill="none" xmlns="http://www.w3.org/2000/svg">
<g clip-path="url(#clip0_331_3216)">
<path d="M215.451 20.9668L5.9729 82L11.5214 101.043L221 40.0103L215.451 20.9668Z" fill="#3F3D56"/>
<path d="M31.0001 169.474L0.124636 63.5031C-0.104266 62.7175 -0.0116817 61.873 0.382007 61.1556C0.775696 60.4382 1.43824 59.9066 2.22391 59.6777L206.624 0.123983C207.409 -0.10415 208.253 -0.0112522 208.971 0.382295C209.688 0.775843 210.22 1.43788 210.449 2.22309L237.803 96.1053L236.956 96.3519L209.603 2.46974C209.438 1.90911 209.059 1.43649 208.546 1.15543C208.034 0.874368 207.432 0.807774 206.87 0.970248L2.4705 60.524C1.90931 60.6875 1.43607 61.0672 1.15486 61.5797C0.873654 62.0921 0.807523 62.6953 0.971016 63.2565L31.8464 169.227L31.0001 169.474Z" fill="#3F3D56"/>
<path d="M192.562 96.5415C191.942 96.5409 191.339 96.3394 190.843 95.9673C190.347 95.5952 189.984 95.0724 189.81 94.4773L184.632 76.7034C184.42 75.9739 184.506 75.1902 184.872 74.5243C185.237 73.8584 185.852 73.3646 186.581 73.1513L204.355 67.9727C205.084 67.7611 205.868 67.8475 206.534 68.2129C207.2 68.5784 207.694 69.1932 207.907 69.9222L213.086 87.6961C213.297 88.4256 213.211 89.2093 212.845 89.8752C212.48 90.5411 211.865 91.0349 211.136 91.2482L193.362 96.4268C193.102 96.5028 192.833 96.5414 192.562 96.5415Z" fill="#2174E3"/>
<path d="M30.5227 63.8309C30.4695 63.6483 30.4062 63.4688 30.3331 63.2932C29.8361 62.087 28.911 61.107 27.7353 60.5415C26.5597 59.9761 25.2166 59.865 23.9641 60.2297C22.7115 60.5943 21.638 61.409 20.9496 62.5172C20.2613 63.6253 20.0067 64.9488 20.2349 66.2332C20.2669 66.4206 20.3096 66.606 20.3627 66.7886C20.6846 67.8873 21.3537 68.8521 22.2699 69.5387C23.186 70.2252 24.3 70.5965 25.4448 70.597C25.9447 70.5981 26.4421 70.5268 26.9215 70.3854C28.2672 69.9922 29.402 69.0814 30.0771 67.8526C30.7522 66.6239 30.9125 65.1776 30.5227 63.8309ZM26.6747 69.5391C25.5524 69.8648 24.3468 69.7322 23.3222 69.1703C22.2976 68.6084 21.5377 67.6631 21.209 66.5418C21.1574 66.3591 21.1161 66.1737 21.0854 65.9864C20.9201 64.9281 21.1459 63.8458 21.7206 62.942C22.2953 62.0381 23.1795 61.3745 24.208 61.0752C25.2364 60.776 26.3387 60.8616 27.3086 61.316C28.2785 61.7705 29.0497 62.5626 29.478 63.5444C29.5578 63.7168 29.6241 63.8951 29.6764 64.0778C30.0017 65.2 29.8683 66.4055 29.3055 67.4295C28.7427 68.4535 27.7965 69.2122 26.6747 69.5391Z" fill="#2174E3"/>
<path d="M17.5495 67.6084C17.2674 66.6397 17.2945 65.6071 17.627 64.6545C17.9595 63.7018 18.5808 62.8766 19.4045 62.2938C18.6328 62.2562 17.8634 62.4036 17.1602 62.7235C16.457 63.0435 15.8405 63.5269 15.3619 64.1334C14.8834 64.7399 14.5567 65.452 14.4091 66.2103C14.2615 66.9687 14.2973 67.7513 14.5134 68.493C14.7295 69.2347 15.1197 69.9141 15.6515 70.4744C16.1833 71.0348 16.8414 71.46 17.5708 71.7146C18.3002 71.9691 19.0799 72.0457 19.8449 71.9379C20.6099 71.8302 21.3381 71.5411 21.9687 71.095C20.961 71.0457 19.9936 70.6834 19.2015 70.0585C18.4094 69.4335 17.8319 68.5771 17.5495 67.6084Z" fill="#2174E3"/>
<path d="M154.573 89.4537C154.479 89.1164 154.319 88.8009 154.104 88.5252C153.888 88.2496 153.62 88.0192 153.315 87.8472C153.01 87.6753 152.674 87.5652 152.326 87.5231C151.978 87.4811 151.626 87.5081 151.289 87.6024L122.025 95.7878L118.874 96.6693H138.665L141.816 95.7878L152.726 92.7375C153.406 92.5465 153.982 92.0934 154.329 91.4777C154.675 90.862 154.763 90.1341 154.573 89.4537Z" fill="#CCCCCC"/>
<path d="M133.869 83.34C133.678 82.6597 133.225 82.083 132.609 81.7366C131.994 81.3903 131.265 81.3027 130.585 81.4932L86.6743 93.7734C86.0607 93.9472 85.5294 94.3346 85.1762 94.8656C84.823 95.3966 84.6712 96.0363 84.748 96.6694H96.1158L99.2717 95.7878L132.022 86.6283C132.703 86.4366 133.28 85.9827 133.626 85.3662C133.972 84.7497 134.06 84.021 133.869 83.34Z" fill="#CCCCCC"/>
<path d="M246.915 95.7869H34.0154C33.1974 95.7878 32.4131 96.1132 31.8347 96.6916C31.2562 97.27 30.9308 98.0543 30.9299 98.8724V224.937C30.9308 225.755 31.2562 226.539 31.8346 227.118C32.4131 227.696 33.1974 228.021 34.0154 228.022H246.915C247.733 228.021 248.517 227.696 249.095 227.118C249.674 226.539 249.999 225.755 250 224.937V98.8724C249.999 98.0543 249.674 97.2701 249.095 96.6916C248.517 96.1132 247.733 95.7878 246.915 95.7869ZM249.119 224.937C249.118 225.521 248.886 226.082 248.473 226.495C248.06 226.908 247.499 227.14 246.915 227.141H34.0154C33.431 227.14 32.8705 226.908 32.4572 226.495C32.044 226.082 31.8117 225.521 31.8115 224.937V98.8724C31.8117 98.2879 32.044 97.7275 32.4573 97.3142C32.8706 96.901 33.431 96.6687 34.0154 96.6684H246.915C247.499 96.6687 248.059 96.901 248.473 97.3142C248.886 97.7275 249.118 98.2879 249.119 98.8724V224.937Z" fill="#3F3D56"/>
<path d="M54.7306 112.978C53.6844 112.978 52.6618 112.668 51.7919 112.087C50.9221 111.506 50.2441 110.68 49.8438 109.713C49.4435 108.746 49.3387 107.683 49.5428 106.657C49.7469 105.631 50.2507 104.688 50.9904 103.949C51.7301 103.209 52.6726 102.705 53.6987 102.501C54.7247 102.297 55.7882 102.402 56.7548 102.802C57.7213 103.202 58.5474 103.88 59.1286 104.75C59.7098 105.62 60.02 106.643 60.02 107.689C60.0184 109.091 59.4606 110.436 58.469 111.427C57.4774 112.419 56.1329 112.977 54.7306 112.978ZM54.7306 103.281C53.8588 103.281 53.0066 103.539 52.2817 104.024C51.5568 104.508 50.9919 105.197 50.6583 106.002C50.3246 106.807 50.2374 107.694 50.4074 108.549C50.5775 109.404 50.9973 110.189 51.6138 110.806C52.2302 111.422 53.0156 111.842 53.8706 112.012C54.7257 112.182 55.612 112.095 56.4174 111.761C57.2228 111.428 57.9112 110.863 58.3956 110.138C58.8799 109.413 59.1384 108.561 59.1384 107.689C59.1371 106.52 58.6723 105.4 57.8459 104.573C57.0196 103.747 55.8992 103.282 54.7306 103.281Z" fill="#2174E3"/>
<path d="M46.509 107.689C46.5092 106.68 46.8241 105.696 47.4097 104.875C47.9954 104.053 48.8228 103.435 49.7766 103.105C49.0463 102.853 48.2663 102.78 47.5017 102.89C46.7371 103.001 46.01 103.292 45.3809 103.741C44.7518 104.189 44.239 104.781 43.8851 105.468C43.5313 106.155 43.3467 106.916 43.3467 107.689C43.3467 108.462 43.5313 109.223 43.8851 109.91C44.239 110.596 44.7518 111.189 45.3809 111.637C46.01 112.086 46.7371 112.377 47.5017 112.488C48.2663 112.598 49.0463 112.524 49.7766 112.272C48.8228 111.943 47.9954 111.325 47.4097 110.503C46.8241 109.682 46.5092 108.698 46.509 107.689Z" fill="#2174E3"/>
<path d="M76.1721 170.182C75.1204 170.181 74.112 169.763 73.3683 169.019C72.6246 168.276 72.2063 167.267 72.2051 166.215V154.314C72.2051 153.262 72.623 152.253 73.367 151.509C74.111 150.765 75.12 150.347 76.1721 150.347C77.2243 150.347 78.2333 150.765 78.9773 151.509C79.7212 152.253 80.1392 153.262 80.1392 154.314V166.215C80.138 167.267 79.7196 168.275 78.9759 169.019C78.2322 169.763 77.2239 170.181 76.1721 170.182Z" fill="#2174E3"/>
<path d="M86.7507 170.182C85.699 170.181 84.6906 169.763 83.9469 169.019C83.2032 168.276 82.7849 167.267 82.7837 166.215V154.314C82.7837 153.262 83.2016 152.253 83.9456 151.509C84.6896 150.765 85.6986 150.347 86.7507 150.347C87.8029 150.347 88.8119 150.765 89.5559 151.509C90.2998 152.253 90.7178 153.262 90.7178 154.314V166.215C90.7166 167.267 90.2983 168.275 89.5546 169.019C88.8108 169.763 87.8025 170.181 86.7507 170.182Z" fill="#2174E3"/>
<path d="M97.3299 170.182C96.2781 170.181 95.2698 169.763 94.5261 169.019C93.7824 168.276 93.364 167.267 93.3628 166.215V154.314C93.3628 153.262 93.7808 152.253 94.5247 151.509C95.2687 150.765 96.2777 150.347 97.3299 150.347C98.382 150.347 99.391 150.765 100.135 151.509C100.879 152.253 101.297 153.262 101.297 154.314V166.215C101.296 167.267 100.877 168.275 100.134 169.019C99.39 169.763 98.3816 170.181 97.3299 170.182Z" fill="#2174E3"/>
<path d="M113.639 170.182C112.587 170.181 111.579 169.763 110.835 169.019C110.091 168.276 109.673 167.267 109.672 166.215V154.314C109.672 153.262 110.09 152.253 110.834 151.509C111.578 150.765 112.587 150.347 113.639 150.347C114.691 150.347 115.7 150.765 116.444 151.509C117.188 152.253 117.606 153.262 117.606 154.314V166.215C117.605 167.267 117.186 168.275 116.443 169.019C115.699 169.763 114.691 170.181 113.639 170.182Z" fill="#2174E3"/>
<path d="M124.218 170.182C123.166 170.181 122.157 169.763 121.414 169.019C120.67 168.276 120.252 167.267 120.25 166.215V154.314C120.25 153.262 120.668 152.253 121.412 151.509C122.156 150.765 123.165 150.347 124.218 150.347C125.27 150.347 126.279 150.765 127.023 151.509C127.767 152.253 128.185 153.262 128.185 154.314V166.215C128.183 167.267 127.765 168.275 127.021 169.019C126.278 169.763 125.269 170.181 124.218 170.182Z" fill="#2174E3"/>
<path d="M134.796 170.182C133.744 170.181 132.736 169.763 131.992 169.019C131.249 168.276 130.83 167.267 130.829 166.215V154.314C130.829 153.262 131.247 152.253 131.991 151.509C132.735 150.765 133.744 150.347 134.796 150.347C135.848 150.347 136.857 150.765 137.601 151.509C138.345 152.253 138.763 153.262 138.763 154.314V166.215C138.762 167.267 138.344 168.275 137.6 169.019C136.856 169.763 135.848 170.181 134.796 170.182Z" fill="#2174E3"/>
<path d="M151.105 170.182C150.053 170.181 149.045 169.763 148.301 169.019C147.558 168.276 147.139 167.267 147.138 166.215V154.314C147.138 153.262 147.556 152.253 148.3 151.509C149.044 150.765 150.053 150.347 151.105 150.347C152.157 150.347 153.166 150.765 153.91 151.509C154.654 152.253 155.072 153.262 155.072 154.314V166.215C155.071 167.267 154.653 168.275 153.909 169.019C153.165 169.763 152.157 170.181 151.105 170.182Z" fill="#2174E3"/>
<path d="M161.684 170.182C160.633 170.181 159.624 169.763 158.881 169.019C158.137 168.276 157.718 167.267 157.717 166.215V154.314C157.717 153.262 158.135 152.253 158.879 151.509C159.623 150.765 160.632 150.347 161.684 150.347C162.736 150.347 163.746 150.765 164.489 151.509C165.233 152.253 165.651 153.262 165.651 154.314V166.215C165.65 167.267 165.232 168.275 164.488 169.019C163.744 169.763 162.736 170.181 161.684 170.182Z" fill="#2174E3"/>
<path d="M172.263 170.182C171.211 170.181 170.203 169.763 169.459 169.019C168.715 168.276 168.297 167.267 168.296 166.215V154.314C168.296 153.262 168.714 152.253 169.458 151.509C170.202 150.765 171.211 150.347 172.263 150.347C173.315 150.347 174.324 150.765 175.068 151.509C175.812 152.253 176.23 153.262 176.23 154.314V166.215C176.229 167.267 175.81 168.275 175.067 169.019C174.323 169.763 173.315 170.181 172.263 170.182Z" fill="#2174E3"/>
<path d="M188.572 170.182C187.52 170.181 186.512 169.763 185.768 169.019C185.025 168.276 184.606 167.267 184.605 166.215V154.314C184.605 153.262 185.023 152.253 185.767 151.509C186.511 150.765 187.52 150.347 188.572 150.347C189.624 150.347 190.633 150.765 191.377 151.509C192.121 152.253 192.539 153.262 192.539 154.314V166.215C192.538 167.267 192.12 168.275 191.376 169.019C190.632 169.763 189.624 170.181 188.572 170.182Z" fill="#2174E3"/>
<path d="M199.151 170.182C198.099 170.181 197.091 169.763 196.347 169.019C195.604 168.276 195.185 167.267 195.184 166.215V154.314C195.184 153.262 195.602 152.253 196.346 151.509C197.09 150.765 198.099 150.347 199.151 150.347C200.203 150.347 201.212 150.765 201.956 151.509C202.7 152.253 203.118 153.262 203.118 154.314V166.215C203.117 167.267 202.699 168.275 201.955 169.019C201.211 169.763 200.203 170.181 199.151 170.182Z" fill="#2174E3"/>
<path d="M209.73 170.182C208.678 170.181 207.67 169.763 206.926 169.019C206.182 168.276 205.764 167.267 205.763 166.215V154.314C205.763 153.262 206.181 152.253 206.925 151.509C207.669 150.765 208.678 150.347 209.73 150.347C210.782 150.347 211.791 150.765 212.535 151.509C213.279 152.253 213.697 153.262 213.697 154.314V166.215C213.696 167.267 213.277 168.275 212.534 169.019C211.79 169.763 210.782 170.181 209.73 170.182Z" fill="#2174E3"/>
<path d="M103.068 214.335H46.0125C45.3056 214.335 44.6276 214.054 44.1277 213.554C43.6278 213.054 43.3469 212.376 43.3469 211.669C43.3469 210.962 43.6278 210.284 44.1277 209.784C44.6276 209.284 45.3056 209.003 46.0125 209.003H103.068C103.775 209.003 104.453 209.284 104.953 209.784C105.453 210.284 105.733 210.962 105.733 211.669C105.733 212.376 105.453 213.054 104.953 213.554C104.453 214.054 103.775 214.335 103.068 214.335Z" fill="#E6E6E6"/>
<path d="M84.7752 202.874H64.305C63.598 202.874 62.92 202.593 62.4201 202.093C61.9202 201.594 61.6394 200.916 61.6394 200.209C61.6394 199.502 61.9202 198.824 62.4201 198.324C62.92 197.824 63.598 197.543 64.305 197.543H84.7752C85.4821 197.543 86.1601 197.824 86.66 198.324C87.1599 198.824 87.4407 199.502 87.4407 200.209C87.4407 200.916 87.1599 201.594 86.66 202.093C86.1601 202.593 85.4821 202.874 84.7752 202.874Z" fill="#E6E6E6"/>
<path d="M248.96 122.137H31.6528V123.019H248.96V122.137Z" fill="#3F3D56"/>
</g>
<defs>
<clipPath id="clip0_331_3216">
<rect width="250" height="228.022" fill="white"/>
</clipPath>
</defs>
</svg>
