<svg width="17" height="15" viewBox="0 0 17 15" fill="none" xmlns="http://www.w3.org/2000/svg">
<path d="M4.13068 0.20752C7.03808 -0.0691732 9.96191 -0.0691735 12.8693 0.20752L14.27 0.340828C15.2025 0.429571 16.0012 1.03849 16.415 1.90951C16.4679 2.02094 16.4282 2.15585 16.3307 2.22196L10.519 6.16075C9.27255 7.00551 7.70088 7.02323 6.43881 6.20676L0.588277 2.42189C0.493755 2.36074 0.450369 2.23486 0.492966 2.12408C0.871534 1.13955 1.72264 0.436691 2.72994 0.340828L4.13068 0.20752Z" fill="#C0C0C0"/>
<path d="M0.488206 4.12634C0.343549 4.03276 0.158973 4.13347 0.142111 4.31649C-0.0932299 6.87095 -0.036271 9.44959 0.312987 11.9923C0.49711 13.3328 1.49641 14.3605 2.72994 14.4779L4.13069 14.6112C7.03807 14.8879 9.96192 14.8879 12.8693 14.6112L14.2701 14.4779C15.5036 14.3605 16.5029 13.3328 16.687 11.9923C17.0464 9.37549 17.0963 6.72063 16.8366 4.09324C16.8183 3.90892 16.6306 3.81007 16.4866 3.90765L11.2513 7.45583C9.56493 8.59873 7.43855 8.62271 5.73104 7.51808L0.488206 4.12634Z" fill="#C0C0C0"/>
</svg>
