<svg width="14" height="20" viewBox="0 0 14 20" fill="none" xmlns="http://www.w3.org/2000/svg">
<path fill-rule="evenodd" clip-rule="evenodd" d="M2.42965 5.74445L2.75807 8.98047L2.09347 9.03855C1.16669 9.11955 0.409927 9.88227 0.259692 10.8868C-0.0865639 13.2019 -0.0865639 15.5632 0.259692 17.8783C0.409927 18.8828 1.16669 19.6455 2.09347 19.7265L3.52575 19.8517C5.78709 20.0494 8.05922 20.0494 10.3206 19.8517L11.7528 19.7265C12.6796 19.6455 13.4364 18.8828 13.5866 17.8783C13.9329 15.5632 13.9329 13.2019 13.5866 10.8868C13.4364 9.88227 12.6796 9.11955 11.7528 9.03855L11.0881 8.98046L11.4166 5.74445C11.4553 5.36298 11.4553 4.97798 11.4166 4.5965L11.3948 4.38175C11.1636 2.10387 9.5279 0.301527 7.4488 0.0337382C7.09954 -0.011246 6.74667 -0.011246 6.39742 0.0337381C4.31831 0.301527 2.68263 2.10387 2.45145 4.38175L2.42965 4.5965C2.39093 4.97798 2.39094 5.36298 2.42965 5.74445ZM7.28101 1.59509C7.04323 1.56446 6.80298 1.56446 6.5652 1.59509C5.14967 1.77741 4.03605 3.0045 3.87865 4.55536L3.85685 4.77011C3.82985 5.0362 3.82985 5.30475 3.85685 5.57084L4.19077 8.86097C6.01046 8.7332 7.83576 8.7332 9.65545 8.86096L9.98936 5.57084C10.0164 5.30475 10.0164 5.0362 9.98936 4.77011L9.96756 4.55536C9.81017 3.0045 8.69654 1.77741 7.28101 1.59509ZM6.92313 12.8104C6.13006 12.8104 5.48714 13.5143 5.48714 14.3825C5.48714 15.2508 6.13006 15.9547 6.92313 15.9547C7.7162 15.9547 8.35912 15.2508 8.35912 14.3825C8.35912 13.5143 7.7162 12.8104 6.92313 12.8104Z" fill="#C0C0C0"/>
</svg>
