<svg width="375" height="382" viewBox="0 0 375 382" fill="none" xmlns="http://www.w3.org/2000/svg">
<g clip-path="url(#clip0_2_5144)">
<g clip-path="url(#clip1_2_5144)">
<path d="M48 53.8125C48 66.5449 58.3301 76.875 71.0625 76.875H130C141.323 76.875 150.5 67.698 150.5 56.375C150.5 46.4613 143.453 38.1813 134.1 36.2914C134.757 34.5777 135.125 32.7039 135.125 30.75C135.125 22.2617 128.238 15.375 119.75 15.375C116.595 15.375 113.648 16.3359 111.214 17.9695C106.777 10.282 98.4973 5.125 89 5.125C74.8422 5.125 63.375 16.5922 63.375 30.75C63.375 31.1824 63.391 31.6148 63.407 32.0473C54.4383 35.2023 48 43.7547 48 53.8125Z" fill="#E9F1FC" fill-opacity="0.2"/>
</g>
<path d="M129 338C129 357.875 145.125 374 165 374H257C274.675 374 289 359.675 289 342C289 326.525 278 313.6 263.4 310.65C264.425 307.975 265 305.05 265 302C265 288.75 254.25 278 241 278C236.075 278 231.475 279.5 227.675 282.05C220.75 270.05 207.825 262 193 262C170.9 262 153 279.9 153 302C153 302.675 153.025 303.35 153.05 304.025C139.05 308.95 129 322.3 129 338Z" fill="#E9F1FC" fill-opacity="0.2"/>
<path d="M-89 224C-89 243.875 -72.875 260 -53 260H39C56.675 260 71 245.675 71 228C71 212.525 60 199.6 45.4 196.65C46.425 193.975 47 191.05 47 188C47 174.75 36.25 164 23 164C18.075 164 13.475 165.5 9.675 168.05C2.75 156.05 -10.175 148 -25 148C-47.1 148 -65 165.9 -65 188C-65 188.675 -64.975 189.35 -64.95 190.025C-78.95 194.95 -89 208.3 -89 224Z" fill="#E9F1FC" fill-opacity="0.2"/>
<path d="M239 169.438C239 182.791 249.784 193.625 263.075 193.625H324.6C336.42 193.625 346 184 346 172.125C346 161.728 338.644 153.044 328.88 151.062C329.565 149.264 329.95 147.299 329.95 145.25C329.95 136.348 322.761 129.125 313.9 129.125C310.606 129.125 307.53 130.133 304.989 131.846C300.358 123.784 291.714 118.375 281.8 118.375C267.021 118.375 255.05 130.402 255.05 145.25C255.05 145.704 255.067 146.157 255.083 146.611C245.721 149.92 239 158.889 239 169.438Z" fill="#E9F1FC" fill-opacity="0.2"/>
</g>
<defs>
<clipPath id="clip0_2_5144">
<rect width="375" height="382" fill="white"/>
</clipPath>
<clipPath id="clip1_2_5144">
<rect width="102.5" height="82" fill="white" transform="translate(48)"/>
</clipPath>
</defs>
</svg>
