<svg width="135" height="138" viewBox="0 0 135 138" fill="none" xmlns="http://www.w3.org/2000/svg">
<path fill-rule="evenodd" clip-rule="evenodd" d="M103.907 17.2915L87.7303 33.624C71.1478 30.3025 4.74149 14.3027 3.87306 15.3971C2.90321 16.6259 2.56091 17.4707 0.614873 19.9283C19.771 34.5776 39.2885 48.5806 58.4953 63.1404L34.0589 87.812L0 89.956L29.9386 107.485L46.743 137.149L48.8539 102.877C56.8472 94.8775 64.8976 86.9288 72.929 78.9673C87.5085 98.551 101.517 118.461 116.173 138C118.607 136.029 119.444 135.69 120.661 134.704C121.757 133.821 105.403 64.7084 102.468 49.3102C107.977 43.6591 113.435 37.9632 118.823 32.1905C147.525 1.47735 135.228 -14.3368 103.907 17.2915Z" fill="white"/>
</svg>
