<?xml version="1.0" encoding="UTF-8"?>
<!DOCTYPE svg PUBLIC "-//W3C//DTD SVG 1.1//EN" "http://www.w3.org/Graphics/SVG/1.1/DTD/svg11.dtd">
<svg xmlns="http://www.w3.org/2000/svg" version="1.1" width="297px" height="405px" style="shape-rendering:geometricPrecision; text-rendering:geometricPrecision; image-rendering:optimizeQuality; fill-rule:evenodd; clip-rule:evenodd" xmlns:xlink="http://www.w3.org/1999/xlink">
<g><path style="opacity:0.197" fill="#eaf0f9" d="M -0.5,371.5 C -0.5,369.833 -0.5,368.167 -0.5,366.5C 63.0533,400.92 126.72,401.087 190.5,367C 252.011,328.85 284.344,273.35 287.5,200.5C 284.344,127.65 252.011,72.15 190.5,34C 126.72,-0.0866474 63.0533,0.0800193 -0.5,34.5C -0.5,32.8333 -0.5,31.1667 -0.5,29.5C 46.5351,4.6209 95.8684,-1.21243 147.5,12C 226.702,37.2259 273.869,90.7259 289,172.5C 297.065,244.669 273.898,304.503 219.5,352C 161.3,396.367 97.2998,407.033 27.5,384C 18.027,380.096 8.69368,375.929 -0.5,371.5 Z"/></g>
<g><path style="opacity:0.198" fill="#eaeff9" d="M -0.5,300.5 C -0.5,298.833 -0.5,297.167 -0.5,295.5C 44.3434,336.031 95.0101,345.198 151.5,323C 207.883,293.754 233.716,247.254 229,183.5C 222.043,139.38 199.543,105.88 161.5,83C 112.467,58.2599 64.8006,60.5932 18.5,90C 12.0024,95.0008 5.66908,100.167 -0.5,105.5C -0.5,103.833 -0.5,102.167 -0.5,100.5C 43.0333,62.0728 92.3667,52.5728 147.5,72C 202.652,97.0054 231.319,139.839 233.5,200.5C 231.421,258.724 204.421,300.89 152.5,327C 102.502,347.019 55.5024,341.686 11.5,311C 7.33222,307.664 3.33222,304.164 -0.5,300.5 Z"/></g>
<g><path style="opacity:0.198" fill="#ebeef9" d="M 82.5,119.5 C 123.594,116.12 153.094,132.786 171,169.5C 183.262,204.947 176.095,235.781 149.5,262C 123.864,282.525 95.5306,287.191 64.5,276C 37.2571,263.749 20.7571,242.915 15,213.5C 11.8231,163.463 34.3231,132.13 82.5,119.5 Z M 92.5,122.5 C 132.73,124.243 158.897,144.243 171,182.5C 177.388,215.341 167.554,242.175 141.5,263C 108.824,284.111 76.8241,283.111 45.5,260C 19.5911,235.601 12.0911,206.434 23,172.5C 36.6263,142.448 59.7929,125.781 92.5,122.5 Z"/></g>
</svg>
