<svg width="23" height="24" viewBox="0 0 23 24" fill="none" xmlns="http://www.w3.org/2000/svg">
<path fill-rule="evenodd" clip-rule="evenodd" d="M17.7027 3.00722L14.9466 5.84766C12.1215 5.27 0.80781 2.48743 0.659856 2.67776C0.494622 2.89146 0.436304 3.03838 0.104756 3.46578C3.3684 6.0135 6.69359 8.4488 9.96587 10.9809L5.80263 15.2717L0 15.6445L5.10065 18.6931L7.96362 23.852L8.32325 17.8917C9.68508 16.5004 11.0566 15.1181 12.4249 13.7334C14.9088 17.1393 17.2956 20.6019 19.7924 24C20.2071 23.6572 20.3497 23.5982 20.557 23.4268C20.7439 23.2732 17.9576 11.2536 17.4576 8.57569C18.396 7.59288 19.3259 6.60229 20.2439 5.59834C25.1339 0.25693 23.0388 -2.49336 17.7027 3.00722Z" fill="#757575"/>
</svg>
