<svg width="24" height="24" viewBox="0 0 24 24" fill="none" xmlns="http://www.w3.org/2000/svg">
<path fill-rule="evenodd" clip-rule="evenodd" d="M3.39703 11.6316C3.39703 16.6021 7.42647 20.6316 12.397 20.6316C15.6858 20.6316 18.5656 18.8665 20.1358 16.2301C16.7285 17.329 12.6922 16.7549 9.98282 14.0456C7.25201 11.3147 6.72603 7.28421 7.86703 3.89299C5.20697 5.47933 3.39703 8.38938 3.39703 11.6316ZM21.187 13.5852C22.0125 13.1022 23.255 13.6489 23 14.5707C21.7144 19.2188 17.4543 22.6316 12.397 22.6316C6.3219 22.6316 1.39703 17.7067 1.39703 11.6316C1.39703 6.5888 4.93533 2.25851 9.61528 1.00005C10.5393 0.751563 11.0645 1.99384 10.5641 2.80941C8.70026 5.84662 8.83194 10.0662 11.397 12.6313C13.9319 15.1663 18.1365 15.3703 21.187 13.5852Z" fill="#242424"/>
</svg>
