<svg width="327" height="172" viewBox="0 0 327 172" fill="none" xmlns="http://www.w3.org/2000/svg">
<path d="M0.5 8.944C0.5 4.25632 4.10619 0.5 8.502 0.5H318.498C322.894 0.5 326.5 4.25633 326.5 8.944V75.8696C321.405 75.9665 317.344 80.3345 317.344 85.656C317.344 90.9775 321.405 95.3455 326.5 95.4424V163.056C326.5 167.744 322.894 171.5 318.498 171.5H8.50201C4.1062 171.5 0.5 167.744 0.5 163.056V95.4312C0.659349 95.4397 0.819716 95.444 0.981 95.444C6.15684 95.444 10.31 91.0376 10.31 85.656C10.31 80.2744 6.15684 75.868 0.981 75.868C0.819717 75.868 0.65935 75.8723 0.5 75.8808V8.944Z" fill="white" stroke="#D4D4D4"/>
</svg>
