<svg width="24" height="24" viewBox="0 0 24 24" fill="none" xmlns="http://www.w3.org/2000/svg">
<path d="M17.928 19.6341H20.066C20.2541 19.637 20.44 19.5944 20.608 19.5099C20.776 19.4253 20.9211 19.3013 21.0307 19.1485C21.1404 18.9957 21.2114 18.8186 21.2378 18.6324C21.2641 18.4462 21.245 18.2563 21.182 18.0791C20.6368 16.9123 19.7737 15.9228 18.6917 15.2242C17.6098 14.5255 16.3528 14.146 15.065 14.1291M15.065 11.3701C15.5462 11.3702 16.0228 11.2756 16.4675 11.0915C16.9121 10.9074 17.3161 10.6375 17.6565 10.2973C17.9968 9.95704 18.2668 9.55308 18.451 9.10848C18.6352 8.66388 18.73 8.18734 18.73 7.7061C18.7313 7.22401 18.6375 6.7464 18.4539 6.30064C18.2703 5.85488 18.0005 5.44974 17.66 5.10844C17.3196 4.76713 16.9151 4.49637 16.4698 4.31167C16.0245 4.12697 15.5471 4.03196 15.065 4.0321M9.34 11.4851C10.4417 11.4824 11.4974 11.0429 12.2755 10.2628C13.0535 9.48269 13.4903 8.42584 13.49 7.3241C13.49 6.22318 13.0527 5.16736 12.2742 4.3889C11.4957 3.61043 10.4399 3.1731 9.339 3.1731C8.23809 3.1731 7.18226 3.61043 6.4038 4.3889C5.62534 5.16736 5.188 6.22318 5.188 7.3241C5.188 8.42584 5.62505 9.48259 6.40325 10.2625C7.18146 11.0424 8.23726 11.4817 9.339 11.4841M14.025 20.8271C14.3772 20.8266 14.7225 20.7286 15.0224 20.544C15.3224 20.3594 15.5654 20.0954 15.7246 19.7811C15.8837 19.4669 15.9528 19.1147 15.9241 18.7637C15.8954 18.4126 15.7701 18.0763 15.562 17.7921C14.8333 16.8244 13.895 16.0341 12.8175 15.4806C11.7399 14.9271 10.5511 14.6247 9.34 14.5961C8.12886 14.6248 6.93994 14.9274 5.86237 15.4811C4.78481 16.0347 3.84657 16.8252 3.118 17.7931C2.91066 18.0773 2.7859 18.4134 2.75751 18.7641C2.72912 19.1147 2.79819 19.4665 2.95711 19.7804C3.11603 20.0943 3.3586 20.3581 3.65805 20.5429C3.9575 20.7276 4.30217 20.8259 4.654 20.8271H14.025Z" stroke="#242424" stroke-width="2" stroke-linecap="round" stroke-linejoin="round"/>
</svg>
