<svg width="24" height="24" viewBox="0 0 24 24" fill="none" xmlns="http://www.w3.org/2000/svg">
<path d="M3.49999 7.99983C3.50019 7.05174 3.74546 6.11981 4.21201 5.29446C4.67855 4.46911 5.35053 3.77838 6.16273 3.2893C6.97492 2.80021 7.89976 2.52938 8.84748 2.50309C9.7952 2.4768 10.7336 2.69594 11.5717 3.13925C12.4097 3.58256 13.119 4.23497 13.6306 5.03319C14.1421 5.8314 14.4387 6.74831 14.4915 7.69492C14.5442 8.64154 14.3514 9.58572 13.9317 10.4358C13.5119 11.286 12.8796 12.0131 12.096 12.5468C13.7835 13.1658 15.2472 14.2755 16.2986 15.7333C17.3501 17.1911 17.9412 18.9302 17.996 20.7268C17.9937 20.9205 17.9166 21.1058 17.7808 21.244C17.6451 21.3823 17.4612 21.4627 17.2676 21.4685C17.0739 21.4743 16.8855 21.405 16.7418 21.2752C16.598 21.1454 16.5099 20.965 16.496 20.7718C16.4364 18.8233 15.6205 16.9745 14.2212 15.6172C12.8218 14.26 10.9489 13.5009 8.99949 13.5009C7.05004 13.5009 5.17718 14.26 3.77782 15.6172C2.37845 16.9745 1.56254 18.8233 1.50299 20.7718C1.49298 20.9677 1.40667 21.1518 1.26255 21.2848C1.11843 21.4177 0.927967 21.489 0.731962 21.4832C0.535957 21.4775 0.350001 21.3952 0.21393 21.254C0.0778594 21.1128 0.00249738 20.9239 0.00398901 20.7278C0.0585404 18.9311 0.649596 17.1917 1.70107 15.7337C2.75255 14.2758 4.21633 13.1658 5.90399 12.5468C5.16282 12.0425 4.55628 11.3645 4.13726 10.5719C3.71824 9.77935 3.49946 8.89633 3.49999 7.99983ZM8.99999 3.99983C7.93912 3.99983 6.92171 4.42126 6.17156 5.1714C5.42142 5.92155 4.99999 6.93896 4.99999 7.99983C4.99999 9.0607 5.42142 10.0781 6.17156 10.8283C6.92171 11.5784 7.93912 11.9998 8.99999 11.9998C10.0609 11.9998 11.0783 11.5784 11.8284 10.8283C12.5786 10.0781 13 9.0607 13 7.99983C13 6.93896 12.5786 5.92155 11.8284 5.1714C11.0783 4.42126 10.0609 3.99983 8.99999 3.99983ZM17.29 7.99983C17.142 7.99983 16.998 8.00983 16.856 8.02983C16.7568 8.04758 16.6551 8.04518 16.5569 8.02278C16.4588 8.00037 16.3661 7.95842 16.2845 7.89942C16.2028 7.84042 16.1339 7.76558 16.0818 7.67937C16.0298 7.59316 15.9956 7.49734 15.9813 7.39764C15.9671 7.29793 15.9731 7.19638 15.9989 7.09903C16.0248 7.00169 16.07 6.91055 16.1318 6.83106C16.1937 6.75156 16.2709 6.68534 16.3589 6.63633C16.4469 6.58733 16.5438 6.55655 16.644 6.54583C17.6386 6.40203 18.6527 6.59303 19.5269 7.08875C20.401 7.58448 21.0855 8.3568 21.4726 9.28416C21.8597 10.2115 21.9275 11.2413 21.6652 12.2114C21.403 13.1815 20.8256 14.0368 20.024 14.6428C21.2024 15.1705 22.2029 16.0278 22.9049 17.1115C23.6068 18.1951 23.9802 19.4587 23.98 20.7498C23.98 20.9487 23.901 21.1395 23.7603 21.2802C23.6197 21.4208 23.4289 21.4998 23.23 21.4998C23.0311 21.4998 22.8403 21.4208 22.6997 21.2802C22.559 21.1395 22.48 20.9487 22.48 20.7498C22.4799 19.634 22.1203 18.5478 21.4546 17.6523C20.7889 16.7568 19.8525 16.0995 18.784 15.7778L18.25 15.6178V13.9418L18.66 13.7328C19.2677 13.425 19.754 12.9213 20.0403 12.3031C20.3266 11.6849 20.3962 10.9882 20.2378 10.3256C20.0795 9.66297 19.7024 9.07304 19.1676 8.65106C18.6327 8.22907 17.9713 7.99965 17.29 7.99983Z" fill="#2174E3"/>
</svg>
