<svg width="21" height="22" viewBox="0 0 21 22" fill="none" xmlns="http://www.w3.org/2000/svg">
<path d="M10.4999 0C8.31189 0 6.21347 0.869194 4.6663 2.41637C3.11912 3.96354 2.24993 6.06196 2.24993 8.25V12.6528L0.48168 17.0766C0.426105 17.2157 0.405468 17.3663 0.421574 17.5152C0.43768 17.6642 0.490038 17.8069 0.574067 17.9309C0.658097 18.0549 0.771237 18.1564 0.903588 18.2266C1.03594 18.2967 1.18347 18.3334 1.33326 18.3333H6.83326C6.83326 20.3656 8.46768 22 10.4999 22C12.5322 22 14.1666 20.3656 14.1666 18.3333H19.6666C19.8164 18.3334 19.9639 18.2967 20.0963 18.2266C20.2286 18.1564 20.3418 18.0549 20.4258 17.9309C20.5098 17.8069 20.5622 17.6642 20.5783 17.5152C20.5944 17.3663 20.5738 17.2157 20.5182 17.0766L18.7499 12.6528V8.25C18.7499 6.06196 17.8807 3.96354 16.3336 2.41637C14.7864 0.869194 12.688 0 10.4999 0ZM12.3333 18.3333C12.3333 19.3527 11.5193 20.1667 10.4999 20.1667C9.4806 20.1667 8.6666 19.3527 8.6666 18.3333H12.3333ZM4.08326 8.25C4.08326 6.54819 4.7593 4.91609 5.96266 3.71273C7.16602 2.50937 8.79812 1.83333 10.4999 1.83333C12.2017 1.83333 13.8338 2.50937 15.0372 3.71273C16.2406 4.91609 16.9166 6.54819 16.9166 8.25V12.8288C16.9165 12.9452 16.9386 13.0606 16.9817 13.1688L18.3127 16.5H2.68718L4.01818 13.1688C4.06117 13.0609 4.08325 12.9458 4.08326 12.8297V8.25Z" fill="#1FCF6A"/>
</svg>
