<svg width="240" height="240" viewBox="0 0 240 240" fill="none" xmlns="http://www.w3.org/2000/svg">
<circle cx="120" cy="120" r="120" fill="#BAD4F6"/>
<path d="M53 120H186V198C186 202.418 182.418 206 178 206H61C56.5817 206 53 202.418 53 198V120Z" fill="#0E315F"/>
<path d="M53 42C53 37.5817 56.5817 34 61 34H178C182.418 34 186 37.5817 186 42V120H53V42Z" fill="#2174E3"/>
<path fill-rule="evenodd" clip-rule="evenodd" d="M134.918 55.1421L128.236 61.8882C121.387 60.5162 93.9584 53.9077 93.5997 54.3597C93.1992 54.8672 93.0578 55.2162 92.254 56.2312C100.166 62.2821 108.228 68.0659 116.161 74.0797L106.068 84.2702L92 85.1557L104.366 92.3961L111.307 104.648L112.179 90.4928C115.48 87.1885 118.806 83.9054 122.123 80.6169C128.145 88.7059 133.931 96.9296 139.984 105C140.99 104.186 141.335 104.046 141.838 103.639C142.291 103.274 135.536 74.7274 134.324 68.3673C136.599 66.0331 138.853 63.6804 141.079 61.2961C152.934 48.6102 147.855 42.0783 134.918 55.1421Z" fill="white"/>
<rect x="61" y="128" width="61" height="6" rx="3" fill="#919191"/>
<rect x="130" y="128" width="20" height="6" rx="3" fill="#919191"/>
<rect x="61" y="142" width="23" height="6" rx="3" fill="#919191"/>
<rect x="92" y="142" width="33" height="6" rx="3" fill="#919191"/>
<rect x="133" y="142" width="22" height="6" rx="3" fill="#919191"/>
<rect x="61" y="156" width="45" height="6" rx="3" fill="#919191"/>
<rect x="115" y="156" width="45" height="6" rx="3" fill="#919191"/>
<circle cx="171" cy="49" r="11" fill="#0E315F"/>
<path d="M167.653 43.0495C168.243 42.949 168.848 42.9821 169.423 43.1466C169.999 43.311 170.53 43.6024 170.978 43.9995L171.003 44.0215L171.025 44.0015C171.453 43.6264 171.955 43.3467 172.499 43.1812C173.044 43.0156 173.617 42.968 174.181 43.0415L174.345 43.0655C175.056 43.1882 175.72 43.5009 176.268 43.9705C176.815 44.44 177.226 45.0489 177.456 45.7327C177.685 46.4165 177.726 47.1497 177.573 47.8548C177.42 48.5598 177.08 49.2103 176.587 49.7375L176.467 49.8608L176.435 49.8882L171.469 54.8075C171.354 54.9209 171.202 54.989 171.041 54.999C170.88 55.0091 170.721 54.9605 170.593 54.8622L170.531 54.8075L165.535 49.8595C165.006 49.3446 164.63 48.6933 164.448 47.9777C164.266 47.2621 164.286 46.5101 164.505 45.805C164.724 45.1 165.134 44.4694 165.69 43.983C166.245 43.4967 166.925 43.1736 167.653 43.0495Z" fill="#2174E3"/>
</svg>
