<svg width="24" height="24" viewBox="0 0 24 24" fill="none" xmlns="http://www.w3.org/2000/svg">
<g clip-path="url(#clip0_316_1350)">
<path d="M12 3.1C14.65 3.85 17.55 4.75 19 5.25V13.1C19 14.8 17.15 17.8 12 20.8C6.85 17.75 5 14.8 5 13.1V5.25C6.45 4.7 9.35 3.85 12 3.1ZM12 1C12 1 3 3.55 3 4V13.1C3 17.7 9.65 21.75 11.5 22.85C11.648 22.9489 11.822 23.0017 12 23.0017C12.178 23.0017 12.352 22.9489 12.5 22.85C14.4 21.8 21 17.7 21 13.1V4C21 3.55 12 1 12 1Z" fill="#242424"/>
<path d="M9.80001 14.7001L7.30001 12.2501C7.12678 12.073 7.02172 11.8404 7.00342 11.5934C6.98512 11.3463 7.05475 11.1008 7.20001 10.9001C7.28095 10.7796 7.38842 10.6792 7.51417 10.6067C7.63993 10.5342 7.78063 10.4915 7.92547 10.4819C8.0703 10.4722 8.21543 10.4959 8.34969 10.551C8.48396 10.6062 8.6038 10.6914 8.70001 10.8001L10.5 12.6001L15.3 7.8001C15.4926 7.65567 15.7308 7.58555 15.9709 7.60261C16.211 7.61968 16.4369 7.72278 16.6071 7.89299C16.7773 8.0632 16.8804 8.2891 16.8975 8.52921C16.9146 8.76932 16.8444 9.00753 16.7 9.2001L11.2 14.7001C11.111 14.7971 11.0028 14.8745 10.8823 14.9275C10.7618 14.9805 10.6316 15.0078 10.5 15.0078C10.3684 15.0078 10.2382 14.9805 10.1177 14.9275C9.99718 14.8745 9.88901 14.7971 9.80001 14.7001Z" fill="#242424"/>
</g>
<defs>
<clipPath id="clip0_316_1350">
<rect width="24" height="24" fill="white"/>
</clipPath>
</defs>
</svg>
