<svg width="24" height="24" viewBox="0 0 24 24" fill="none" xmlns="http://www.w3.org/2000/svg">
<g clip-path="url(#clip0_406_4323)">
<path d="M9 7.5C9.19891 7.5 9.38968 7.57902 9.53033 7.71967C9.67098 7.86032 9.75 8.05109 9.75 8.25V18.75C9.75 18.9489 9.67098 19.1397 9.53033 19.2803C9.38968 19.421 9.19891 19.5 9 19.5C8.80109 19.5 8.61032 19.421 8.46967 19.2803C8.32902 19.1397 8.25 18.9489 8.25 18.75V8.25C8.25 8.05109 8.32902 7.86032 8.46967 7.71967C8.61032 7.57902 8.80109 7.5 9 7.5ZM12 7.5C12.1989 7.5 12.3897 7.57902 12.5303 7.71967C12.671 7.86032 12.75 8.05109 12.75 8.25V18.75C12.75 18.9489 12.671 19.1397 12.5303 19.2803C12.3897 19.421 12.1989 19.5 12 19.5C11.8011 19.5 11.6103 19.421 11.4697 19.2803C11.329 19.1397 11.25 18.9489 11.25 18.75V8.25C11.25 8.05109 11.329 7.86032 11.4697 7.71967C11.6103 7.57902 11.8011 7.5 12 7.5ZM15 7.5C15.1989 7.5 15.3897 7.57902 15.5303 7.71967C15.671 7.86032 15.75 8.05109 15.75 8.25V18.75C15.75 18.9489 15.671 19.1397 15.5303 19.2803C15.3897 19.421 15.1989 19.5 15 19.5C14.8011 19.5 14.6103 19.421 14.4697 19.2803C14.329 19.1397 14.25 18.9489 14.25 18.75V8.25C14.25 8.05109 14.329 7.86032 14.4697 7.71967C14.6103 7.57902 14.8011 7.5 15 7.5Z" fill="black"/>
<path d="M9.75 0C9.55109 0 9.36032 0.0790176 9.21967 0.21967C9.07902 0.360322 9 0.551088 9 0.75V4.5H7.5C6.70435 4.5 5.94129 4.81607 5.37868 5.37868C4.81607 5.94129 4.5 6.70435 4.5 7.5V19.5C4.49989 20.0358 4.64326 20.5618 4.91522 21.0234C5.18718 21.4851 5.57781 21.8654 6.0465 22.125C5.99017 22.3467 5.98513 22.5783 6.03176 22.8022C6.07839 23.0261 6.17546 23.2365 6.3156 23.4173C6.45574 23.598 6.63525 23.7445 6.84048 23.8455C7.04572 23.9464 7.27127 23.9993 7.5 24C7.89782 24 8.27936 23.842 8.56066 23.5607C8.84196 23.2794 9 22.8978 9 22.5H15C15.0006 22.7126 15.0464 22.9226 15.1344 23.1161C15.2223 23.3096 15.3503 23.4822 15.51 23.6225C15.6697 23.7628 15.8574 23.8675 16.0607 23.9298C16.2639 23.992 16.4781 24.0104 16.6889 23.9836C16.8998 23.9568 17.1026 23.8856 17.2838 23.7745C17.465 23.6634 17.6206 23.5151 17.7402 23.3394C17.8597 23.1636 17.9406 22.9645 17.9774 22.7551C18.0141 22.5458 18.006 22.331 17.9535 22.125C18.4222 21.8654 18.8128 21.4851 19.0848 21.0234C19.3567 20.5618 19.5001 20.0358 19.5 19.5V7.5C19.5 6.70435 19.1839 5.94129 18.6213 5.37868C18.0587 4.81607 17.2956 4.5 16.5 4.5H15V0.75C15 0.551088 14.921 0.360322 14.7803 0.21967C14.6397 0.0790176 14.4489 0 14.25 0L9.75 0ZM13.5 4.5H10.5V1.5H13.5V4.5ZM18 19.5C18 19.8978 17.842 20.2794 17.5607 20.5607C17.2794 20.842 16.8978 21 16.5 21H7.5C7.10218 21 6.72064 20.842 6.43934 20.5607C6.15804 20.2794 6 19.8978 6 19.5V7.5C6 7.10218 6.15804 6.72064 6.43934 6.43934C6.72064 6.15804 7.10218 6 7.5 6H16.5C16.8978 6 17.2794 6.15804 17.5607 6.43934C17.842 6.72064 18 7.10218 18 7.5V19.5Z" fill="black"/>
</g>
<defs>
<clipPath id="clip0_406_4323">
<rect width="24" height="24" fill="white"/>
</clipPath>
</defs>
</svg>
