<svg width="24" height="24" viewBox="0 0 24 24" fill="none" xmlns="http://www.w3.org/2000/svg">
<path fill-rule="evenodd" clip-rule="evenodd" d="M14.5421 3H3.37581C2.74571 3 2.14141 3.26172 1.69586 3.7276C1.25031 4.19347 1 4.82533 1 5.48417V8.7964C1.0003 8.97944 1.0586 9.15722 1.16577 9.30194C1.27295 9.44667 1.42296 9.55018 1.59237 9.59631C2.1049 9.73815 2.55817 10.0533 2.88156 10.4926C3.20495 10.9318 3.38031 11.4706 3.38031 12.025C3.38031 12.5794 3.20495 13.1182 2.88156 13.5574C2.55817 13.9967 2.1049 14.3118 1.59237 14.4537C1.423 14.5002 1.27314 14.6041 1.16625 14.7491C1.05935 14.8942 1.00144 15.0721 1.00158 15.2553V18.5658C1.00158 19.2247 1.25189 19.8565 1.69744 20.3224C2.14299 20.7883 2.74729 21.05 3.37739 21.05H14.5437V18.2098C14.5437 17.9352 14.648 17.672 14.8336 17.4779C15.0193 17.2837 15.2711 17.1747 15.5336 17.1747C15.7962 17.1747 16.048 17.2837 16.2336 17.4779C16.4192 17.672 16.5235 17.9352 16.5235 18.2098V21.05H20.6226C21.2527 21.05 21.857 20.7883 22.3026 20.3224C22.7481 19.8565 22.9984 19.2247 22.9984 18.5658V15.2486C22.9986 15.0667 22.9414 14.8897 22.8358 14.7452C22.7301 14.6006 22.5819 14.4964 22.414 14.4487C21.9062 14.3031 21.4582 13.9872 21.1389 13.5494C20.8196 13.1117 20.6466 12.5764 20.6466 12.0258C20.6466 11.4753 20.8196 10.94 21.1389 10.5022C21.4582 10.0645 21.9062 9.74852 22.414 9.60293C22.5822 9.55557 22.7308 9.45152 22.8367 9.30691C22.9427 9.1623 23.0001 8.98519 23 8.80303V5.48583C23 4.82699 22.7497 4.19513 22.3041 3.72925C21.8586 3.26338 21.2543 3.00166 20.6242 3.00166H16.522V5.85514C16.522 6.12966 16.4177 6.39294 16.232 6.58705C16.0464 6.78116 15.7946 6.89021 15.532 6.89021C15.2695 6.89021 15.0177 6.78116 14.8321 6.58705C14.6464 6.39294 14.5421 6.12966 14.5421 5.85514V3ZM15.532 9.31974C16.0801 9.31974 16.522 9.78345 16.522 10.3548V13.6935C16.522 13.9681 16.4177 14.2313 16.232 14.4254C16.0464 14.6196 15.7946 14.7286 15.532 14.7286C15.2695 14.7286 15.0177 14.6196 14.8321 14.4254C14.6464 14.2313 14.5421 13.9681 14.5421 13.6935V10.3548C14.5421 9.78345 14.9856 9.31974 15.532 9.31974Z" fill="#2174E3"/>
</svg>
