<svg width="300" height="300" viewBox="0 0 300 300" fill="none" xmlns="http://www.w3.org/2000/svg">
<path d="M300 229.44H0V229.59H300V229.44Z" fill="#EBEBEB"/>
<path d="M261.402 239.094H250.068V239.244H261.402V239.094Z" fill="#EBEBEB"/>
<path d="M193.512 238.05H175.83V238.2H193.512V238.05Z" fill="#EBEBEB"/>
<path d="M249.468 233.526H221.202V233.676H249.468V233.526Z" fill="#EBEBEB"/>
<path d="M38.058 234.534H31.476V234.684H38.058V234.534Z" fill="#EBEBEB"/>
<path d="M66.534 234.534H43.398V234.684H66.534V234.534Z" fill="#EBEBEB"/>
<path d="M135.09 237.066H102.6V237.216H135.09V237.066Z" fill="#EBEBEB"/>
<path d="M142.2 202.68H26.346C25.4384 202.678 24.5686 202.317 23.9274 201.674C23.2862 201.032 22.926 200.162 22.926 199.254V36.396C22.9339 35.4936 23.2975 34.6308 23.9379 33.9949C24.5782 33.3591 25.4436 33.0015 26.346 33H142.2C143.109 33 143.98 33.361 144.623 34.0035C145.265 34.646 145.626 35.5174 145.626 36.426V199.254C145.626 200.163 145.265 201.034 144.623 201.677C143.98 202.319 143.109 202.68 142.2 202.68ZM26.346 33.12C25.4782 33.1216 24.6465 33.4674 24.0334 34.0816C23.4204 34.6958 23.076 35.5282 23.076 36.396V199.254C23.076 200.122 23.4204 200.954 24.0334 201.568C24.6465 202.183 25.4782 202.528 26.346 202.53H142.2C143.068 202.528 143.901 202.183 144.515 201.569C145.129 200.955 145.474 200.122 145.476 199.254V36.396C145.474 35.5276 145.129 34.6953 144.515 34.0813C143.901 33.4672 143.068 33.1216 142.2 33.12H26.346Z" fill="#EBEBEB"/>
<path d="M271.986 202.68H156.126C155.218 202.678 154.347 202.317 153.705 201.675C153.063 201.033 152.702 200.162 152.7 199.254V36.396C152.709 35.4931 153.074 34.6302 153.716 33.9946C154.357 33.3589 155.223 33.0015 156.126 33H271.986C272.887 33.0031 273.751 33.3613 274.39 33.997C275.029 34.6327 275.392 35.4947 275.4 36.396V199.254C275.4 200.161 275.041 201.03 274.401 201.672C273.761 202.314 272.893 202.677 271.986 202.68ZM156.126 33.12C155.258 33.1216 154.425 33.4672 153.811 34.0813C153.197 34.6953 152.852 35.5276 152.85 36.396V199.254C152.852 200.122 153.197 200.955 153.811 201.569C154.425 202.183 155.258 202.528 156.126 202.53H271.986C272.854 202.528 273.687 202.183 274.301 201.569C274.915 200.955 275.26 200.122 275.262 199.254V36.396C275.26 35.5276 274.915 34.6953 274.301 34.0813C273.687 33.4672 272.854 33.1216 271.986 33.12H156.126Z" fill="#EBEBEB"/>
<path d="M178.056 45.204L177.546 46.2301C177.517 46.289 177.474 46.34 177.42 46.3786C177.367 46.4173 177.305 46.4425 177.24 46.4521L176.106 46.62C176.03 46.6307 175.959 46.6623 175.901 46.7113C175.843 46.7602 175.799 46.8246 175.775 46.897C175.751 46.9695 175.749 47.0472 175.767 47.1212C175.785 47.1953 175.823 47.2628 175.878 47.3161L176.7 48.12C176.747 48.1664 176.782 48.2232 176.803 48.2857C176.824 48.3483 176.83 48.4148 176.82 48.4801L176.622 49.6081C176.608 49.6843 176.615 49.7631 176.644 49.8352C176.673 49.9073 176.721 49.9697 176.784 50.015C176.847 50.0604 176.922 50.0868 177 50.0913C177.077 50.0957 177.154 50.0779 177.222 50.0401L178.236 49.5061C178.296 49.4764 178.361 49.461 178.428 49.461C178.495 49.461 178.56 49.4764 178.62 49.5061L179.634 50.0401C179.702 50.0779 179.779 50.0957 179.856 50.0913C179.934 50.0868 180.009 50.0604 180.072 50.015C180.134 49.9697 180.183 49.9073 180.212 49.8352C180.241 49.7631 180.248 49.6843 180.234 49.6081L180.042 48.4801C180.029 48.4148 180.033 48.3473 180.054 48.2842C180.075 48.2211 180.113 48.1645 180.162 48.12L180.978 47.3161C181.033 47.2628 181.071 47.1953 181.089 47.1212C181.107 47.0472 181.104 46.9695 181.081 46.897C181.057 46.8246 181.013 46.7602 180.955 46.7113C180.897 46.6623 180.825 46.6307 180.75 46.62L179.616 46.4521C179.551 46.4425 179.489 46.4173 179.436 46.3786C179.382 46.34 179.339 46.289 179.31 46.2301L178.8 45.204C178.768 45.1324 178.715 45.0716 178.649 45.029C178.583 44.9863 178.507 44.9636 178.428 44.9636C178.349 44.9636 178.273 44.9863 178.207 45.029C178.141 45.0716 178.088 45.1324 178.056 45.204Z" fill="#F5F5F5"/>
<path d="M257.496 183.852L256.728 184.416C256.684 184.448 256.632 184.47 256.578 184.478C256.524 184.486 256.468 184.482 256.416 184.464L255.51 184.158C255.45 184.136 255.386 184.132 255.324 184.146C255.262 184.159 255.205 184.19 255.16 184.235C255.114 184.279 255.083 184.336 255.068 184.397C255.054 184.459 255.057 184.524 255.078 184.584L255.378 185.49C255.396 185.542 255.401 185.598 255.393 185.652C255.385 185.706 255.363 185.758 255.33 185.802L254.73 186.564C254.693 186.616 254.67 186.676 254.665 186.74C254.66 186.803 254.672 186.867 254.701 186.924C254.729 186.981 254.773 187.029 254.826 187.062C254.88 187.096 254.942 187.115 255.006 187.116H255.96C256.016 187.116 256.071 187.129 256.12 187.155C256.169 187.181 256.211 187.22 256.242 187.266L256.788 188.046C256.825 188.096 256.876 188.136 256.934 188.159C256.992 188.183 257.055 188.191 257.117 188.181C257.179 188.171 257.237 188.144 257.285 188.103C257.333 188.063 257.368 188.01 257.388 187.95L257.676 187.044C257.692 186.991 257.721 186.943 257.759 186.903C257.798 186.863 257.846 186.834 257.898 186.816L258.81 186.54C258.87 186.521 258.924 186.486 258.965 186.438C259.006 186.391 259.034 186.333 259.044 186.271C259.055 186.209 259.048 186.145 259.025 186.087C259.001 186.029 258.962 185.978 258.912 185.94L258.138 185.388C258.092 185.357 258.054 185.315 258.029 185.266C258.004 185.216 257.992 185.161 257.994 185.106V184.152C257.995 184.093 257.98 184.035 257.952 183.983C257.923 183.932 257.882 183.889 257.831 183.858C257.781 183.828 257.723 183.812 257.665 183.81C257.606 183.809 257.548 183.824 257.496 183.852Z" fill="#F0F0F0"/>
<path d="M252.222 53.2201L252 54.3421C251.986 54.4068 251.957 54.4671 251.914 54.5174C251.871 54.5677 251.816 54.6065 251.754 54.6301L250.692 55.0561C250.62 55.0837 250.558 55.131 250.512 55.1924C250.466 55.2538 250.439 55.3269 250.433 55.4033C250.426 55.4797 250.442 55.5563 250.477 55.6244C250.512 55.6924 250.566 55.7492 250.632 55.7881L251.616 56.3881C251.674 56.4213 251.723 56.4682 251.758 56.5247C251.794 56.5812 251.815 56.6455 251.82 56.7121L251.892 57.8581C251.899 57.9341 251.926 58.0068 251.972 58.0681C252.017 58.1294 252.079 58.177 252.149 58.2056C252.22 58.2341 252.298 58.2426 252.373 58.2299C252.448 58.2173 252.518 58.1842 252.576 58.1341L253.434 57.3781C253.484 57.3347 253.544 57.3039 253.609 57.2883C253.674 57.2726 253.741 57.2726 253.806 57.2881L254.916 57.5701C254.99 57.5902 255.069 57.5888 255.142 57.5662C255.216 57.5436 255.282 57.5006 255.332 57.4423C255.382 57.3839 255.415 57.3126 255.426 57.2365C255.437 57.1603 255.427 57.0826 255.396 57.0121L254.94 55.9561C254.909 55.8979 254.893 55.833 254.893 55.7671C254.893 55.7012 254.909 55.6363 254.94 55.5781L255.54 54.6061C255.575 54.5416 255.591 54.4691 255.588 54.396C255.585 54.3229 255.563 54.2519 255.523 54.1906C255.483 54.1292 255.427 54.0797 255.362 54.0473C255.296 54.0148 255.223 54.0006 255.15 54.0061L254.01 54.1141C253.943 54.1196 253.876 54.1088 253.814 54.0827C253.753 54.0565 253.698 54.0159 253.656 53.9641L252.924 53.0881C252.878 53.0319 252.817 52.9891 252.748 52.9643C252.68 52.9395 252.606 52.9335 252.534 52.947C252.462 52.9604 252.396 52.9929 252.341 53.0409C252.286 53.089 252.245 53.1508 252.222 53.2201Z" fill="#F5F5F5"/>
<path d="M55.296 92.8859L54.816 93.3719C54.7892 93.4012 54.755 93.4228 54.717 93.4344C54.679 93.446 54.6386 93.4472 54.6 93.4379L53.928 93.3239C53.8828 93.3155 53.8361 93.3199 53.7933 93.3366C53.7505 93.3534 53.7132 93.3818 53.6857 93.4186C53.6582 93.4555 53.6416 93.4993 53.6378 93.5452C53.6339 93.591 53.643 93.637 53.664 93.6779L53.982 94.2779C53.9999 94.3132 54.0092 94.3523 54.0092 94.3919C54.0092 94.4315 53.9999 94.4705 53.982 94.5059L53.658 95.1059C53.635 95.1461 53.6241 95.192 53.6266 95.2383C53.6292 95.2845 53.6451 95.329 53.6723 95.3664C53.6996 95.4039 53.7371 95.4326 53.7803 95.4492C53.8236 95.4657 53.8707 95.4695 53.916 95.4599L54.588 95.3459C54.6271 95.3406 54.6669 95.3443 54.7043 95.3568C54.7418 95.3692 54.7759 95.3902 54.804 95.4179L55.284 95.9159C55.3154 95.9495 55.3557 95.9733 55.4003 95.9847C55.4448 95.996 55.4917 95.9943 55.5353 95.9797C55.5789 95.9652 55.6174 95.9385 55.6462 95.9027C55.6751 95.8669 55.693 95.8236 55.698 95.7779L55.8 95.1059C55.8059 95.0659 55.8217 95.0281 55.8457 94.9956C55.8698 94.9632 55.9015 94.9372 55.938 94.9199L56.538 94.6199C56.5783 94.5992 56.6122 94.5679 56.6358 94.5292C56.6594 94.4906 56.6719 94.4462 56.6719 94.4009C56.6719 94.3556 56.6594 94.3112 56.6358 94.2725C56.6122 94.2339 56.5783 94.2025 56.538 94.1819L55.938 93.8759C55.9029 93.8574 55.8727 93.831 55.8497 93.7987C55.8268 93.7663 55.8118 93.7291 55.806 93.6899L55.716 92.9999C55.7062 92.9562 55.6847 92.916 55.6537 92.8836C55.6228 92.8512 55.5836 92.8279 55.5404 92.8162C55.4971 92.8045 55.4515 92.8048 55.4085 92.817C55.3654 92.8293 55.3265 92.8531 55.296 92.8859Z" fill="#F5F5F5"/>
<path d="M235.11 177.42L234.804 178.02C234.787 178.057 234.761 178.088 234.728 178.112C234.696 178.136 234.658 178.152 234.618 178.158L233.94 178.254C233.895 178.261 233.853 178.281 233.818 178.311C233.783 178.341 233.758 178.38 233.744 178.423C233.73 178.467 233.729 178.513 233.74 178.558C233.752 178.602 233.775 178.642 233.808 178.674L234.294 179.148C234.323 179.176 234.345 179.212 234.357 179.25C234.37 179.289 234.373 179.33 234.366 179.37L234.252 180.042C234.245 180.087 234.25 180.133 234.268 180.174C234.285 180.216 234.313 180.253 234.35 180.279C234.387 180.306 234.43 180.322 234.475 180.326C234.52 180.329 234.566 180.32 234.606 180.3L235.206 179.982C235.241 179.964 235.28 179.955 235.32 179.955C235.36 179.955 235.399 179.964 235.434 179.982L236.034 180.3C236.074 180.32 236.12 180.329 236.165 180.326C236.21 180.322 236.253 180.306 236.29 180.279C236.327 180.253 236.355 180.216 236.372 180.174C236.39 180.133 236.395 180.087 236.388 180.042L236.274 179.37C236.267 179.33 236.27 179.289 236.283 179.25C236.295 179.212 236.317 179.176 236.346 179.148L236.838 178.674C236.871 178.642 236.894 178.601 236.905 178.556C236.916 178.512 236.915 178.465 236.9 178.421C236.886 178.377 236.859 178.338 236.824 178.309C236.789 178.279 236.746 178.26 236.7 178.254L236.022 178.158C235.982 178.151 235.945 178.135 235.913 178.111C235.88 178.087 235.854 178.056 235.836 178.02L235.536 177.42C235.514 177.383 235.483 177.352 235.446 177.33C235.409 177.308 235.366 177.297 235.323 177.297C235.28 177.297 235.237 177.308 235.2 177.33C235.163 177.352 235.132 177.383 235.11 177.42Z" fill="#F5F5F5"/>
<path d="M82.41 45.2701L82.332 45.9481C82.3299 45.9884 82.3171 46.0274 82.2949 46.0611C82.2728 46.0949 82.2421 46.1221 82.206 46.1401L81.606 46.4641C81.5657 46.4847 81.5318 46.5161 81.5082 46.5547C81.4846 46.5934 81.472 46.6378 81.472 46.6831C81.472 46.7284 81.4846 46.7728 81.5082 46.8115C81.5318 46.8501 81.5657 46.8815 81.606 46.9021L82.206 47.1841C82.2423 47.2009 82.2742 47.2259 82.2992 47.2571C82.3242 47.2884 82.3416 47.325 82.35 47.3641L82.47 48.0361C82.4781 48.0815 82.4989 48.1238 82.5299 48.158C82.561 48.1922 82.601 48.2169 82.6454 48.2295C82.6899 48.242 82.7369 48.2417 82.7812 48.2288C82.8256 48.2158 82.8653 48.1906 82.896 48.1561L83.352 47.6521C83.3792 47.6229 83.413 47.6006 83.4506 47.5871C83.4882 47.5735 83.5284 47.5691 83.568 47.5741L84.246 47.6641C84.2915 47.6702 84.3377 47.6634 84.3795 47.6445C84.4213 47.6257 84.4571 47.5955 84.4826 47.5575C84.5082 47.5194 84.5227 47.475 84.5243 47.4291C84.526 47.3833 84.5148 47.3379 84.492 47.2981L84.15 46.6981C84.1321 46.6628 84.1227 46.6237 84.1227 46.5841C84.1227 46.5445 84.1321 46.5054 84.15 46.4701L84.45 45.8701C84.4688 45.8286 84.4757 45.7827 84.47 45.7375C84.4642 45.6922 84.446 45.6495 84.4174 45.6141C84.3887 45.5786 84.3508 45.5518 84.3079 45.5366C84.2649 45.5214 84.2185 45.5185 84.174 45.5281L83.508 45.6661C83.4689 45.6744 83.4284 45.6733 83.3898 45.6629C83.3512 45.6525 83.3156 45.633 83.286 45.6061L82.8 45.1201C82.7666 45.0949 82.7274 45.0786 82.686 45.0727C82.6446 45.0669 82.6023 45.0717 82.5633 45.0867C82.5243 45.1017 82.4897 45.1264 82.4629 45.1585C82.4361 45.1906 82.4179 45.229 82.41 45.2701Z" fill="#EBEBEB"/>
<path d="M63.768 185.508L63.912 186.708C63.9192 186.776 63.9098 186.845 63.8848 186.909C63.8597 186.972 63.8196 187.029 63.768 187.074L62.88 187.86C62.822 187.913 62.7796 187.98 62.7576 188.056C62.7356 188.131 62.7348 188.211 62.7553 188.287C62.7757 188.362 62.8167 188.431 62.8736 188.485C62.9306 188.539 63.0013 188.576 63.078 188.592L64.242 188.82C64.3098 188.834 64.3732 188.864 64.4266 188.908C64.48 188.952 64.5217 189.008 64.548 189.072L65.022 190.158C65.0529 190.231 65.1037 190.293 65.1685 190.339C65.2334 190.384 65.3097 190.41 65.3887 190.414C65.4677 190.417 65.5461 190.399 65.615 190.36C65.6838 190.321 65.7404 190.264 65.778 190.194L66.378 189.162C66.4117 189.101 66.46 189.049 66.5187 189.011C66.5773 188.974 66.6445 188.951 66.714 188.946L67.914 188.832C67.993 188.826 68.0685 188.797 68.1319 188.749C68.1952 188.702 68.2438 188.637 68.2721 188.563C68.3003 188.489 68.307 188.409 68.2914 188.331C68.2758 188.253 68.2386 188.181 68.184 188.124L67.38 187.254C67.3331 187.203 67.2993 187.142 67.2815 187.075C67.2637 187.008 67.2625 186.937 67.278 186.87L67.536 185.718C67.5542 185.64 67.5498 185.558 67.5235 185.482C67.4971 185.406 67.4499 185.339 67.3871 185.289C67.3244 185.239 67.2488 185.207 67.1689 185.198C67.0891 185.189 67.0084 185.203 66.936 185.238L65.862 185.736C65.8011 185.769 65.7331 185.786 65.664 185.786C65.5949 185.786 65.5269 185.769 65.466 185.736L64.446 185.136C64.3806 185.088 64.3027 185.059 64.2215 185.054C64.1404 185.048 64.0594 185.066 63.9881 185.105C63.9168 185.144 63.8582 185.203 63.8192 185.274C63.7802 185.346 63.7624 185.427 63.768 185.508Z" fill="#EBEBEB"/>
<path d="M116.124 59.934C116.124 60.0921 116.171 60.2466 116.259 60.378C116.347 60.5093 116.472 60.6116 116.618 60.6718C116.764 60.732 116.925 60.7475 117.08 60.7162C117.235 60.6849 117.377 60.6083 117.488 60.4961C117.6 60.3839 117.675 60.2412 117.705 60.086C117.735 59.9308 117.719 59.7702 117.658 59.6244C117.596 59.4787 117.493 59.3545 117.361 59.2676C117.229 59.1806 117.074 59.1348 116.916 59.136C116.811 59.136 116.708 59.1567 116.612 59.1969C116.515 59.237 116.427 59.2959 116.354 59.3701C116.28 59.4443 116.222 59.5323 116.183 59.6291C116.143 59.7259 116.123 59.8295 116.124 59.934Z" fill="#F0F0F0"/>
<path d="M90.78 214.602C90.78 214.76 90.8268 214.914 90.9145 215.045C91.0022 215.177 91.1268 215.279 91.2726 215.339C91.4185 215.4 91.5789 215.415 91.7337 215.385C91.8885 215.354 92.0307 215.278 92.1423 215.166C92.2539 215.055 92.3299 214.912 92.3607 214.758C92.3915 214.603 92.3757 214.442 92.3153 214.297C92.2549 214.151 92.1526 214.026 92.0214 213.938C91.8901 213.851 91.7359 213.804 91.578 213.804C91.3664 213.804 91.1634 213.888 91.0138 214.038C90.8641 214.187 90.78 214.39 90.78 214.602Z" fill="#F5F5F5"/>
<path d="M106.602 45.552C106.602 46.1287 106.773 46.6925 107.093 47.172C107.414 47.6516 107.869 48.0253 108.402 48.246C108.935 48.4667 109.521 48.5245 110.087 48.412C110.653 48.2994 111.172 48.0217 111.58 47.6139C111.988 47.2061 112.265 46.6865 112.378 46.1209C112.49 45.5552 112.433 44.9689 112.212 44.4361C111.991 43.9033 111.618 43.4478 111.138 43.1274C110.659 42.807 110.095 42.636 109.518 42.636C109.135 42.6352 108.755 42.7101 108.401 42.8564C108.047 43.0026 107.725 43.2174 107.454 43.4883C107.183 43.7592 106.969 44.081 106.822 44.4352C106.676 44.7893 106.601 45.1688 106.602 45.552Z" fill="#F0F0F0"/>
<path d="M258.486 89.55C258.486 89.8693 258.581 90.1813 258.758 90.4467C258.935 90.7121 259.187 90.919 259.482 91.0412C259.777 91.1633 260.102 91.1953 260.415 91.133C260.728 91.0707 261.016 90.917 261.241 90.6913C261.467 90.4656 261.621 90.178 261.683 89.8649C261.745 89.5518 261.713 89.2273 261.591 88.9324C261.469 88.6375 261.262 88.3854 260.997 88.208C260.731 88.0307 260.419 87.936 260.1 87.936C259.672 87.9376 259.263 88.1082 258.96 88.4105C258.658 88.7129 258.488 89.1225 258.486 89.55Z" fill="#F0F0F0"/>
<path d="M33.648 188.526C34.0954 188.526 34.458 188.163 34.458 187.716C34.458 187.269 34.0954 186.906 33.648 186.906C33.2007 186.906 32.838 187.269 32.838 187.716C32.838 188.163 33.2007 188.526 33.648 188.526Z" fill="#F0F0F0"/>
<path d="M230.82 218.208C230.82 218.497 230.906 218.779 231.066 219.019C231.227 219.259 231.455 219.445 231.721 219.556C231.988 219.666 232.282 219.694 232.565 219.638C232.848 219.581 233.107 219.441 233.311 219.237C233.515 219.032 233.653 218.772 233.709 218.489C233.764 218.206 233.735 217.912 233.623 217.646C233.512 217.38 233.324 217.152 233.084 216.993C232.843 216.833 232.561 216.749 232.272 216.75C232.081 216.75 231.892 216.788 231.715 216.861C231.538 216.934 231.378 217.042 231.243 217.177C231.108 217.313 231.001 217.474 230.929 217.651C230.856 217.827 230.819 218.017 230.82 218.208Z" fill="#F0F0F0"/>
<path d="M38.622 74.79C40.676 75.9981 42.948 76.7898 45.3081 77.1198C47.6681 77.4498 50.0701 77.3117 52.3768 76.7133C54.6834 76.1149 56.8496 75.0679 58.7517 73.6323C60.6537 72.1966 62.2542 70.4003 63.462 68.346C63.672 67.992 63.87 67.632 64.062 67.272C60.7308 68.0211 57.2726 67.9992 53.9512 67.2079C50.6298 66.4166 47.5332 64.8768 44.8977 62.7061C42.2622 60.5355 40.1575 57.7913 38.7444 54.6831C37.3313 51.5749 36.6471 48.1849 36.744 44.772C34.3987 46.5872 32.5339 48.9494 31.3124 51.6519C30.091 54.3544 29.5501 57.3149 29.7372 60.2747C29.9243 63.2345 30.8335 66.1034 32.3855 68.6306C33.9374 71.1578 36.0849 73.2664 38.64 74.772L38.622 74.79Z" fill="#F5F5F5"/>
<path d="M35.196 58.488C35.6844 58.8482 36.2465 59.0959 36.842 59.2131C37.4375 59.3303 38.0515 59.3142 38.64 59.1659C36.5903 58.4538 34.8027 57.1408 33.51 55.3979C33.5447 56.0057 33.7139 56.5982 34.0055 57.1326C34.297 57.667 34.7037 58.1299 35.196 58.488Z" fill="#F0F0F0"/>
<path d="M52.986 72.888C53.5676 72.7131 54.1035 72.4122 54.5556 72.0068C55.0078 71.6013 55.365 71.1012 55.602 70.542C54.7076 71.1455 53.7263 71.6088 52.692 71.916C51.6589 72.2272 50.5849 72.381 49.506 72.372C50.0127 72.7079 50.5871 72.9282 51.1885 73.0174C51.7899 73.1066 52.4036 73.0624 52.986 72.888Z" fill="#F0F0F0"/>
<path d="M38.712 65.9221C39.3185 65.8945 39.9113 65.7328 40.4477 65.4485C40.9841 65.1642 41.4508 64.7645 41.814 64.2781C40.8035 64.6519 39.7406 64.8645 38.664 64.9081C37.5854 64.9638 36.5046 64.8525 35.46 64.5781C35.8693 65.0282 36.3731 65.3822 36.9354 65.6145C37.4977 65.8469 38.1044 65.9519 38.712 65.9221Z" fill="#F0F0F0"/>
<path d="M43.674 72.7201C44.0609 73.1884 44.5468 73.5652 45.0966 73.8235C45.6464 74.0818 46.2465 74.2152 46.854 74.2141C45.9474 73.6317 45.1376 72.911 44.454 72.0781C43.763 71.2479 43.2026 70.3172 42.792 69.3181C42.6783 69.9151 42.6985 70.5299 42.851 71.1181C43.0035 71.7064 43.2846 72.2535 43.674 72.7201Z" fill="#F0F0F0"/>
<path d="M150 256.536C214.249 256.536 266.334 253.495 266.334 249.744C266.334 245.993 214.249 242.952 150 242.952C85.7505 242.952 33.666 245.993 33.666 249.744C33.666 253.495 85.7505 256.536 150 256.536Z" fill="#F5F5F5"/>
<path d="M228.075 199.511C263.48 164.106 263.48 106.703 228.075 71.2985C192.67 35.8936 135.267 35.8935 99.8623 71.2985C64.4574 106.703 64.4574 164.106 99.8623 199.511C135.267 234.916 192.67 234.916 228.075 199.511Z" fill="#2174E3"/>
<path opacity="0.7" d="M228.075 199.511C263.48 164.106 263.48 106.703 228.075 71.2985C192.67 35.8936 135.267 35.8935 99.8623 71.2985C64.4574 106.703 64.4574 164.106 99.8623 199.511C135.267 234.916 192.67 234.916 228.075 199.511Z" fill="white"/>
<g opacity="0.2">
<path d="M252.528 154.89L251.118 151.77L245.946 151.206L241.8 148.614L237.468 146.28L233.868 141.198L228.882 136.944L226.398 144.066L229.026 148.176L233.448 150.63L235.68 155.25L239.376 158.094L243.336 159.792L241.986 164.556L240.6 169.704L239.598 175.404L234.084 175.056L229.992 178.254L225.468 179.886L220.878 178.476L216.918 174.936L212.058 171.6L206.712 168.768L203.712 163.716L201.762 159.48L199.296 155.034L199.206 149.994L199.08 144.96L196.872 140.604L195.168 147.894L193.434 152.316L193.536 157.188L191.682 161.736L189.402 167.136L188.202 172.536L191.37 174.486L196.434 174.87L192.486 179.706L188.886 184.182L185.064 188.508L180.264 192.192L174.768 194.502L169.464 197.178L163.332 198.27L158.934 202.746L152.796 203.772L147.282 206.58L141.6 208.8L135.498 208.86L131.238 206.718L125.178 206.64L127.812 201.948L129.252 197.796L131.052 191.88L132 185.58L133.2 179.514L134.868 174.462L136.818 169.302L135.018 163.698L137.61 158.334L134.67 153.756L131.4 149.808L127.2 146.568L124.572 142.152L122.574 137.658L121.11 132.894L120.366 127.734L118.608 122.256L123.354 117.774L126.186 112.32L131.16 109.2L135.924 109.662L141.324 110.298L146.652 111.354L152.478 110.406L157.002 115.14L162.84 117L168.042 120.036L173.208 123.15L178.434 126.252L182.13 131.448L187.77 133.998L193.038 133.398L198.156 133.872L203.196 134.964L209.244 136.89L207.336 129.486L205.44 123.282L201.6 121.362L198.456 117.084L193.932 115.386L189.732 113.478L189.198 108.924L187.8 104.4L186.708 99.6L180.924 96.864L174.756 95.526L169.236 94.47L165.204 97.47L159.912 97.842L154.086 98.73L147.486 93.006L151.482 89.154L151.344 83.892L154.038 79.902L160.38 77.052L164.76 72.156L169.884 73.242L174.726 76.302H180.594L186.156 74.106L191.964 74.928L196.548 72.354L199.746 68.478L203.256 65.01L208.602 64.248L213.642 66.732H218.934L223.86 67.728L225.318 68.628C237 79.3718 245.661 92.9914 250.435 108.128C255.21 123.264 255.931 139.388 252.528 154.89Z" fill="#2174E3"/>
<path d="M170.754 202.848L168.102 206.64L162.294 207.9L157.74 209.544L164.25 211.692H169.872L174.546 208.158L175.176 205.374L170.754 202.848Z" fill="#2174E3"/>
<path d="M102.834 202.2L102.726 202.254C91.4928 191.954 83.0329 178.991 78.1261 164.562L77.6761 162.204L76.9261 160.74C72.3932 145.273 72.0907 128.874 76.0501 113.25L77.1481 117.234L78.4681 122.826L81.8101 128.058L81.6 134.172L84.4501 139.518L85.0501 145.35L85.422 150.15L84.7321 154.902L81.9661 159.336L83.706 165.09L86.5321 170.052L88.272 174.348L88.9981 180.264L91.9981 184.392L93.198 189.456L96.5821 193.398L98.922 197.88L102.834 202.2Z" fill="#2174E3"/>
<path d="M177.102 48.93L173.55 50.4L169.014 53.004L164.4 55.452L159.702 57.642L154.494 58.5L149.604 60.078L144.696 58.446L139.608 57.384L134.718 55.524L129.714 56.046L124.548 58.32L120.348 62.298L117.096 67.344L111.252 69.474L108.174 74.61L104.838 78.84L103.998 84.432L100.026 88.464L98.34 93.6L94.842 97.866L93.45 102.666L88.932 102.006L83.964 101.064L80.556 99.912C88.3139 81.6788 101.83 66.4882 119.037 56.6628C136.245 46.8374 156.197 42.918 175.842 45.504L177.102 48.93Z" fill="#2174E3"/>
</g>
<path d="M255.684 105.444C241.92 117.174 211.056 112.602 203.544 110.13C196.032 107.658 208.032 108.996 214.068 107.73C220.104 106.464 222.354 101.214 231.432 105.33C240.51 109.446 240.48 110.646 244.338 106.122C248.196 101.598 263.484 98.802 255.684 105.444Z" fill="white"/>
<path d="M74.574 163.98C83.256 187.104 123.174 202.074 133.758 204.09C144.342 206.106 129.15 199.77 122.76 194.286C116.37 188.802 117.18 181.008 103.614 179.886C90.048 178.764 89.286 180.246 87.672 172.29C86.058 164.334 69.654 150.882 74.574 163.98Z" fill="white"/>
<path d="M137.772 104.592C113.52 99.6539 90.408 85.0319 88.266 77.0759C87 72.3839 90.492 77.1419 94.434 78.6119C98.376 80.0819 106.83 74.8679 109.23 81.1259C111.63 87.3839 109.578 90.7979 116.262 93.0539C122.946 95.3099 127.26 92.2679 131.082 97.6079C134.904 102.948 144.396 105.942 137.772 104.592Z" fill="white"/>
<path d="M198.102 185.208C165.066 183.198 131.73 168.156 127.404 158.022C124.854 152.022 130.368 157.698 135.864 158.904C141.36 160.11 151.578 151.632 155.928 159.468C160.278 167.304 158.19 172.212 167.46 173.952C176.73 175.692 181.86 170.85 187.944 177.21C194.028 183.57 207.126 185.754 198.102 185.208Z" fill="white"/>
<path d="M218.76 211.062C204.36 221.016 176.382 220.314 171.048 215.814C167.904 213.162 175.134 213.144 178.674 212.76C182.214 212.376 186.636 205.23 190.83 209.052C195.024 212.874 192.492 215.052 198.228 213.42C203.964 211.788 205.5 207.564 210.738 209.436C215.976 211.308 223.464 207.81 218.76 211.062Z" fill="white"/>
<path d="M200.664 79.734C218.064 84.33 236.82 80.238 240.024 74.214C241.914 70.662 238.518 73.458 235.542 73.284C232.566 73.11 228.048 65.574 225.042 70.05C222.036 74.526 222.642 78.198 217.674 77.694C212.706 77.19 210.474 73.02 206.706 76.2C202.938 79.38 195.912 78.48 200.664 79.734Z" fill="white"/>
<path d="M115.812 148.656L112.92 146.184L118.386 139.242L121.284 141.714L115.812 148.656Z" fill="#7F3E3B"/>
<path d="M114 145.014L117.21 147.66C117.268 147.706 117.307 147.772 117.32 147.845C117.333 147.917 117.32 147.992 117.282 148.056L115.578 151.056C115.534 151.128 115.474 151.19 115.404 151.237C115.334 151.285 115.255 151.317 115.172 151.332C115.089 151.346 115.003 151.343 114.921 151.323C114.839 151.302 114.762 151.264 114.696 151.212C113.562 150.234 111.948 148.812 110.496 147.612C108.798 146.208 108.912 146.412 106.896 144.774C105.696 143.778 106.422 142.332 107.022 142.644C109.758 144.054 110.022 144.222 113.07 144.684C113.405 144.705 113.727 144.82 114 145.014Z" fill="#263238"/>
<path opacity="0.2" d="M118.386 139.248L115.572 142.824L118.464 145.296L121.284 141.714L118.386 139.248Z" fill="black"/>
<path d="M137.724 128.676C157.65 130.122 162.792 134.028 172.026 130.746L172.896 122.136L160.998 117.63C160.998 117.63 146.646 115.65 135.576 118.602C124.068 121.668 116.238 140.088 116.238 140.088L121.206 143.688C121.206 143.688 125.022 133.074 137.724 128.676Z" fill="black"/>
<path d="M116.502 138.27L115.236 140.628L120.39 144.978L122.166 143.226L116.502 138.27Z" fill="#263238"/>
<path d="M118.518 188.472L100.758 185.778C99.2286 185.544 97.7672 184.984 96.4729 184.137C95.1786 183.289 94.0816 182.173 93.2561 180.865C92.4305 179.556 91.8958 178.085 91.6881 176.552C91.4803 175.019 91.6044 173.459 92.052 171.978C92.5061 170.498 93.2733 169.132 94.3016 167.974C95.3298 166.816 96.5951 165.893 98.0115 165.267C99.4279 164.641 100.962 164.327 102.511 164.346C104.059 164.365 105.585 164.717 106.986 165.378L123.228 173.052C124.198 173.511 124.971 174.303 125.405 175.285C125.839 176.267 125.905 177.372 125.592 178.398L123.462 185.382C123.144 186.403 122.47 187.277 121.563 187.844C120.656 188.411 119.575 188.634 118.518 188.472Z" fill="#2174E3"/>
<path opacity="0.4" d="M118.518 188.472L100.758 185.778C99.2286 185.544 97.7672 184.984 96.4729 184.137C95.1786 183.289 94.0816 182.173 93.2561 180.865C92.4305 179.556 91.8958 178.085 91.6881 176.552C91.4803 175.019 91.6044 173.459 92.052 171.978C92.5061 170.498 93.2733 169.132 94.3016 167.974C95.3298 166.816 96.5951 165.893 98.0115 165.267C99.4279 164.641 100.962 164.327 102.511 164.346C104.059 164.365 105.585 164.717 106.986 165.378L123.228 173.052C124.198 173.511 124.971 174.303 125.405 175.285C125.839 176.267 125.905 177.372 125.592 178.398L123.462 185.382C123.144 186.403 122.47 187.277 121.563 187.844C120.656 188.411 119.575 188.634 118.518 188.472Z" fill="black"/>
<path d="M112.95 140.742C116.238 141.456 121.038 141.942 121.95 140.298C127.284 130.596 135.15 115.098 136.866 111.63C137.13 111.114 136.806 110.646 135.954 110.28L124.308 105.258C121.872 104.364 118.908 105.15 116.676 106.008C102.978 111.312 77.64 122.208 71.808 126.588C78 132.252 101.766 138.306 112.95 140.742Z" fill="#2174E3"/>
<path opacity="0.2" d="M112.95 140.742C116.238 141.456 121.038 141.942 121.95 140.298C127.284 130.596 135.15 115.098 136.866 111.63C137.13 111.114 136.806 110.646 135.954 110.28L124.308 105.258C121.872 104.364 118.908 105.15 116.676 106.008C102.978 111.312 77.64 122.208 71.808 126.588C78 132.252 101.766 138.306 112.95 140.742Z" fill="black"/>
<path d="M213.114 155.88C214.398 155.91 215.796 155.58 214.656 154.38C207.822 147.216 196.758 135.852 194.298 133.332C193.943 132.959 193.493 132.691 192.996 132.558L186.396 130.794C185.142 130.524 185.16 131.448 185.394 132.318C186.84 137.682 190.41 148.326 192.774 152.028C198.75 154.95 208.758 155.772 213.114 155.88Z" fill="#2174E3"/>
<path opacity="0.2" d="M213.114 155.88C214.398 155.91 215.796 155.58 214.656 154.38C207.822 147.216 196.758 135.852 194.298 133.332C193.943 132.959 193.493 132.691 192.996 132.558L186.396 130.794C185.142 130.524 185.16 131.448 185.394 132.318C186.84 137.682 190.41 148.326 192.774 152.028C198.75 154.95 208.758 155.772 213.114 155.88Z" fill="black"/>
<path d="M103.5 108.816C101.646 108.408 99.81 108.03 98.052 107.694L98.166 107.094C99.93 107.43 101.766 107.808 103.626 108.216L103.5 108.816Z" fill="#2174E3"/>
<path d="M93.678 106.902C87.2166 105.741 80.6704 105.115 74.106 105.03C71.4673 105.019 68.8304 105.169 66.21 105.48L66.138 104.88C68.7828 104.572 71.4434 104.422 74.106 104.43C80.7043 104.517 87.2844 105.145 93.78 106.308L93.678 106.902Z" fill="#2174E3"/>
<path d="M52.734 111.324C81.078 93.9241 157.734 128.934 199.002 138.072C218.166 142.32 206.436 157.908 197.25 159.948C188.064 161.988 75.534 169.548 38.532 152.748C1.52996 135.948 39.462 119.484 52.734 111.324Z" fill="#2174E3"/>
<path d="M194.886 160.32C199.753 159.961 204.409 158.188 208.282 155.219C212.155 152.251 215.078 148.216 216.69 143.61C219.822 134.868 222.042 128.61 222.042 128.61C219.591 127.205 216.834 126.42 214.01 126.324C211.187 126.228 208.383 126.823 205.842 128.058L184.608 138.39L194.886 160.32Z" fill="#2174E3"/>
<path opacity="0.2" d="M193.86 148.05C195.282 151.596 199.386 155.808 202.416 158.586C205.633 157.29 208.539 155.327 210.942 152.826L193.86 148.05Z" fill="black"/>
<path opacity="0.2" d="M206.022 150.852C202.215 151.208 198.391 151.342 194.568 151.254C190.74 151.188 186.912 150.876 183.096 150.486C179.28 150.096 175.482 149.49 171.696 148.842C156.546 146.124 141.732 141.732 127.122 136.716C123.468 135.468 119.82 134.178 116.142 132.876C114.288 132.24 112.476 131.586 110.508 130.986C109.482 130.722 108.468 130.386 107.418 130.194L105.84 129.906C105.317 129.8 104.788 129.724 104.256 129.678C99.9655 129.192 95.6219 129.518 91.452 130.638C89.3946 131.22 87.388 131.969 85.452 132.876C83.5267 133.785 81.6751 134.842 79.914 136.038L78.6 136.962L77.334 137.934L76.134 138.924C75.786 139.218 75.432 139.524 75.066 139.8C73.638 140.952 72.138 142.062 70.614 143.136C67.5491 145.275 64.3704 147.246 61.092 149.04C57.8867 150.824 54.5441 152.349 51.096 153.6C49.4922 154.186 47.8425 154.637 46.164 154.95C45.696 155.034 45.234 155.1 44.79 155.136C49.8079 156.706 54.9254 157.939 60.108 158.826C61.806 157.962 63.456 157.026 65.082 156.078C68.5489 154.025 71.8982 151.78 75.114 149.352C76.728 148.152 78.306 146.874 79.854 145.542C80.238 145.212 80.622 144.864 81 144.528L82.02 143.622L83.028 142.788L84.078 141.99C85.4945 140.957 86.9867 140.033 88.542 139.224C90.0849 138.432 91.6903 137.768 93.342 137.238C96.6587 136.221 100.137 135.836 103.596 136.104C104.031 136.123 104.464 136.171 104.892 136.248L106.188 136.428C107.052 136.572 107.904 136.818 108.762 137.028C110.526 137.496 112.362 138.084 114.222 138.648C117.918 139.806 121.638 140.982 125.37 142.116C140.298 146.652 155.508 150.588 171.048 152.808C174.936 153.336 178.848 153.792 182.748 154.086C186.648 154.38 190.596 154.524 194.538 154.452C198.485 154.403 202.426 154.118 206.34 153.6C207.884 153.388 209.418 153.134 210.942 152.838C211.882 151.883 212.741 150.852 213.51 149.754C211.038 150.234 208.536 150.6 206.022 150.852Z" fill="white"/>
<path opacity="0.2" d="M138.804 160.32C138.804 160.32 110.664 160.17 83.922 157.62C83.322 157.56 81.6 154.518 79.77 153.762C79.572 155.874 79.944 157.218 78.882 157.104C63.414 155.43 44.682 151.596 37.374 147.72C33.654 134.412 25.452 130.41 25.452 130.41C20.328 137.256 21.384 144.972 38.532 152.742C75.534 169.542 188.064 161.982 197.25 159.942L138.804 160.32Z" fill="black"/>
<path d="M83.928 149.004C83.0679 149.008 82.2297 149.276 81.5268 149.771C80.8239 150.267 80.2901 150.967 79.9976 151.775C79.7051 152.584 79.668 153.463 79.8912 154.294C80.1145 155.125 80.5874 155.867 81.246 156.42C99.7439 171.312 134.304 195.048 142.866 200.898C144.168 201.782 145.636 202.394 147.18 202.698L168.18 206.772C170.694 207.258 171.69 205.848 170.634 203.832C164.106 191.382 149.07 166.098 140.34 157.518C120.84 150.738 97.452 149.244 83.928 149.004Z" fill="#2174E3"/>
<path opacity="0.2" d="M140.22 195.9L83.682 151.962C81.834 150.528 79.14 152.334 79.902 154.542C80.1628 155.283 80.6289 155.934 81.246 156.42C99.744 171.312 134.304 195.048 142.866 200.898C144.169 201.782 145.636 202.394 147.18 202.698L168.18 206.772C169.44 207.018 170.316 206.772 170.748 206.238L151.878 201.576C147.639 200.518 143.668 198.584 140.22 195.9Z" fill="black"/>
<path d="M192.198 144.87C191.898 144.911 191.618 145.044 191.397 145.251C191.176 145.458 191.025 145.729 190.965 146.026C190.905 146.323 190.939 146.631 191.062 146.908C191.185 147.184 191.391 147.416 191.652 147.57C198.816 151.77 211.986 158.214 215.25 159.798C215.746 160.036 216.285 160.171 216.834 160.194L224.31 160.524C225.204 160.566 225.48 160.026 225.006 159.384C222.114 155.412 215.616 147.438 212.16 144.918C205.056 143.574 196.89 144.258 192.198 144.87Z" fill="#2174E3"/>
<path opacity="0.2" d="M214.08 158.202L192.264 145.902C192.109 145.816 191.931 145.782 191.756 145.803C191.58 145.824 191.415 145.901 191.286 146.021C191.156 146.142 191.068 146.3 191.033 146.474C190.999 146.647 191.02 146.827 191.094 146.988C191.216 147.239 191.41 147.448 191.652 147.588C198.816 151.788 211.986 158.232 215.25 159.816C215.746 160.054 216.285 160.189 216.834 160.212L224.31 160.542C224.469 160.574 224.633 160.561 224.785 160.506C224.938 160.451 225.072 160.356 225.174 160.23L218.4 159.564C216.881 159.417 215.409 158.953 214.08 158.202Z" fill="black"/>
<path d="M54.174 110.514C53.682 110.766 53.2019 111.036 52.7339 111.324C50.9339 112.416 48.75 113.652 46.338 115.02C47.46 118.248 50.9999 122.016 55.4939 125.4L63.8039 119.028C59.6399 116.4 56.1 113.358 54.174 110.514Z" fill="white"/>
<path d="M66.768 120.756L59.358 128.022C61.2461 129.21 63.2036 130.284 65.22 131.238C65.8409 131.527 66.5144 131.685 67.1989 131.703C67.8833 131.721 68.5643 131.599 69.1997 131.344C69.835 131.088 70.4113 130.706 70.8929 130.219C71.3746 129.732 71.7514 129.152 72 128.514C72.4567 127.338 72.4528 126.032 71.989 124.859C71.5251 123.685 70.6355 122.73 69.498 122.184C68.592 121.734 67.674 121.254 66.768 120.756Z" fill="white"/>
<path d="M228.36 142.8C242.478 145.8 278.886 151.8 260.268 129.468C281.808 151.434 258.918 154.752 239.268 155.868C237.439 155.974 235.609 155.665 233.917 154.963C232.224 154.262 230.712 153.187 229.494 151.818C228.057 150.206 226.759 148.476 225.612 146.646C225.352 146.216 225.224 145.719 225.243 145.216C225.263 144.714 225.429 144.228 225.721 143.819C226.014 143.41 226.419 143.096 226.888 142.915C227.357 142.734 227.869 142.694 228.36 142.8Z" fill="#2174E3"/>
<path opacity="0.2" d="M228.36 142.8C242.478 145.8 278.886 151.8 260.268 129.468C281.808 151.434 258.918 154.752 239.268 155.868C237.439 155.974 235.609 155.665 233.917 154.963C232.224 154.262 230.712 153.187 229.494 151.818C228.057 150.206 226.759 148.476 225.612 146.646C225.352 146.216 225.224 145.719 225.243 145.216C225.263 144.714 225.429 144.228 225.721 143.819C226.014 143.41 226.419 143.096 226.888 142.915C227.357 142.734 227.869 142.694 228.36 142.8Z" fill="white"/>
<path d="M174.786 74.5739C174.913 75.5124 174.665 76.463 174.096 77.2199C173.328 78.2159 172.182 77.7119 171.762 76.6199C171.384 75.6179 171.324 73.896 172.404 73.296C172.64 73.1704 172.903 73.105 173.171 73.1055C173.438 73.1059 173.701 73.1723 173.936 73.2987C174.172 73.425 174.373 73.6075 174.521 73.8299C174.669 74.0524 174.76 74.3079 174.786 74.5739Z" fill="#7F3E3B"/>
<path opacity="0.2" d="M174.786 74.5739C174.913 75.5124 174.665 76.463 174.096 77.2199C173.328 78.2159 172.182 77.7119 171.762 76.6199C171.384 75.6179 171.324 73.896 172.404 73.296C172.64 73.1704 172.903 73.105 173.171 73.1055C173.438 73.1059 173.701 73.1723 173.936 73.2987C174.172 73.425 174.373 73.6075 174.521 73.8299C174.669 74.0524 174.76 74.3079 174.786 74.5739Z" fill="black"/>
<path d="M172.8 74.928C170.322 73.962 172.536 68.694 175.2 68.844C175.56 66.744 179.328 66.636 181.8 67.998C183.766 69.102 185.374 70.7472 186.432 72.738C188.202 75.696 191.184 75.972 191.004 77.034C190.764 78.42 187.95 76.476 187.074 76.926C186.198 77.376 190.974 78.336 190.926 79.782C190.878 81.228 187.776 79.392 186.804 78.996C185.832 78.6 185.082 79.422 187.32 80.736C190.266 82.458 188.55 83.334 187.38 82.458C185.088 80.73 182.652 81.402 184.428 82.95C186.204 84.498 184.128 85.026 182.754 83.352C181.38 81.678 180.354 84.552 177.504 82.278C174.654 80.004 173.712 79.2 172.8 74.928Z" fill="#263238"/>
<path d="M127.986 156.84L121.926 163.278L118.992 160.236L125.052 153.804L127.986 156.84Z" fill="#7F3E3B"/>
<path d="M120.03 159.492L123.57 161.658C123.633 161.694 123.68 161.752 123.703 161.82C123.725 161.889 123.72 161.964 123.69 162.03L122.274 165.144C122.239 165.223 122.186 165.294 122.121 165.351C122.056 165.408 121.979 165.451 121.895 165.475C121.812 165.5 121.725 165.506 121.639 165.493C121.553 165.481 121.471 165.449 121.398 165.402C120.132 164.598 119.79 164.256 118.182 163.272C116.304 162.126 114.984 161.934 112.746 160.65C111.39 159.876 111.936 158.37 112.584 158.574C114.654 159.174 117.786 159.54 119.064 159.252C119.405 159.204 119.751 159.29 120.03 159.492Z" fill="#263238"/>
<path opacity="0.2" d="M127.986 156.846L124.86 160.164L121.926 157.122L125.046 153.804L127.986 156.846Z" fill="black"/>
<path d="M148.71 141.48C160.626 134.778 181.56 137.118 181.56 124.992L168.36 120.402C168.36 120.402 150.96 124.95 142.248 132.75C133.182 140.862 123.048 154.35 123.048 154.35L127.308 158.766C127.308 158.766 138.6 150.348 148.71 141.48Z" fill="#263238"/>
<path d="M122.988 152.904L121.65 155.202L126.93 159.618L128.796 157.926L122.988 152.904Z" fill="white"/>
<path d="M170.88 91.8779C169.566 92.3759 168.306 92.7598 167.004 93.1558C165.702 93.5518 164.4 93.8819 163.062 94.1759C161.71 94.4904 160.342 94.7347 158.964 94.9078C157.46 95.1246 155.936 95.1669 154.422 95.0339H154.272C153.888 94.9931 153.52 94.8547 153.204 94.6319C152.604 94.2138 152.111 93.661 151.764 93.0179C151.473 92.5077 151.27 91.9518 151.164 91.3738C151.018 90.499 151.002 89.6074 151.116 88.7279C151.303 87.2791 151.654 85.8561 152.16 84.4859C152.618 83.1986 153.149 81.9386 153.75 80.7119C154.35 79.5119 154.95 78.3119 155.694 77.1599C155.878 76.8573 156.166 76.6329 156.505 76.5296C156.843 76.4262 157.208 76.4511 157.529 76.5995C157.85 76.7479 158.106 77.0094 158.246 77.3341C158.387 77.6588 158.403 78.0239 158.292 78.3599V78.4019C157.926 79.6019 157.542 80.8019 157.224 82.0439C156.906 83.2859 156.588 84.4439 156.354 85.6439C156.112 86.7626 155.975 87.9016 155.946 89.0459C155.932 89.4631 155.983 89.88 156.096 90.2819C156.126 90.3299 156.138 90.4139 156.162 90.4199C156.186 90.4259 156.162 90.4799 156.198 90.4199C156.172 90.3452 156.121 90.2817 156.054 90.2398L154.854 89.8199C155.955 89.7989 157.052 89.6743 158.13 89.4479C159.33 89.2199 160.53 88.9318 161.73 88.6078C162.93 88.2838 164.13 87.9359 165.36 87.5639C166.59 87.1919 167.796 86.7959 168.96 86.4299H169.002C169.719 86.1978 170.499 86.2557 171.174 86.5911C171.849 86.9265 172.366 87.5127 172.615 88.2245C172.863 88.9363 172.824 89.717 172.504 90.3998C172.184 91.0825 171.61 91.613 170.904 91.8779H170.88Z" fill="#7F3E3B"/>
<path d="M157.35 80.292L161.058 78.72L157.974 75.27C157.974 75.27 154.506 76.986 155.37 79.032L157.35 80.292Z" fill="#7F3E3B"/>
<path d="M162.528 76.128L161.19 74.538C161.026 74.3406 160.799 74.2063 160.547 74.1581C160.296 74.1099 160.035 74.1509 159.81 74.274L157.974 75.27L161.058 78.72L162.354 77.718C162.472 77.6267 162.571 77.5126 162.644 77.3823C162.717 77.2521 162.763 77.1084 162.779 76.96C162.795 76.8115 162.782 76.6613 162.738 76.5184C162.695 76.3754 162.624 76.2426 162.528 76.128Z" fill="#7F3E3B"/>
<path d="M171.396 85.2C167.664 84.708 161.658 88.284 161.658 88.284C161.709 91.0911 162.207 93.872 163.134 96.522C165.412 96.1779 167.61 95.4302 169.626 94.314C170.742 93.726 175.8 85.8 171.396 85.2Z" fill="#F0F0F0"/>
<path d="M171 85.1579C175.983 85.638 180.888 86.7302 185.604 88.4099C186.687 88.8208 187.61 89.5656 188.241 90.5365C188.872 91.5073 189.178 92.6537 189.114 93.8099C188.646 104.543 186.608 115.149 183.066 125.292C180.954 125.37 171.882 124.488 167.466 122.892C166.98 122.718 166.782 120.576 166.782 120.576C166 120.538 165.218 120.659 164.484 120.93C162.986 120.192 161.698 119.088 160.74 117.72C162.906 114.294 163.926 106.428 164.562 99.7739C164.634 97.1519 164.748 92.3879 165.99 89.7179C167.118 87.2039 168.192 84.9419 171 85.1579Z" fill="white"/>
<path d="M174.6 92.6099C174.522 92.8439 174.336 92.9939 174.198 92.9399C174.06 92.8859 174 92.6639 174.078 92.4359C174.156 92.2079 174.342 92.0519 174.486 92.1059C174.63 92.1599 174.66 92.3999 174.6 92.6099Z" fill="#2174E3"/>
<path d="M180.966 79.8359C180.522 82.6559 180.144 85.9679 181.602 88.0799C180.33 89.7419 177.534 90.9359 174.798 91.4519C173.202 89.2919 173.538 87.3479 174.384 86.2619C176.028 85.2419 175.89 83.5259 175.908 82.3379L180.966 79.8359Z" fill="#7F3E3B"/>
<path d="M174.798 91.4521C174.477 90.9598 174.285 90.3943 174.24 89.8081C174.24 88.9501 172.692 89.4241 172.692 89.4241C173.21 90.2681 173.935 90.9661 174.798 91.4521Z" fill="#E0E0E0"/>
<path d="M174.798 91.452C174.901 91.1507 175.093 90.888 175.349 90.6992C175.606 90.5105 175.914 90.4047 176.232 90.396C176.983 90.3451 177.735 90.4641 178.434 90.744C178.434 90.744 176.262 91.584 174.798 91.452Z" fill="#E0E0E0"/>
<path opacity="0.2" d="M179.766 80.9219C179.802 80.7419 179.826 80.5619 179.844 80.3879L175.908 82.3439C175.962 83.1659 175.868 83.9909 175.632 84.7799C177.468 84.2099 179.466 82.6259 179.766 80.9219Z" fill="black"/>
<path d="M183.15 76.2C181.632 79.656 180.912 81.756 178.464 82.896C174.774 84.612 171.012 81.336 171.474 77.496C171.888 74.028 174.306 68.964 178.278 68.862C179.158 68.8401 180.029 69.0417 180.809 69.448C181.59 69.8542 182.255 70.4519 182.741 71.185C183.228 71.9181 183.521 72.7627 183.592 73.6398C183.664 74.5168 183.512 75.3977 183.15 76.2Z" fill="#7F3E3B"/>
<path d="M175.632 69.198C175.08 71.466 181.602 72.6 181.602 72.6C181.602 72.6 178.044 78.6 182.202 78.342C186.36 78.084 186.576 73.086 183.348 70.026C181.08 67.878 177.252 67.14 175.632 69.198Z" fill="#263238"/>
<path d="M173.268 77.9041C174.71 77.9661 176.143 78.1671 177.546 78.5041C177.23 79.0102 176.756 79.3973 176.197 79.6047C175.637 79.8121 175.025 79.828 174.456 79.6501C174.258 79.6257 174.067 79.5592 173.896 79.4551C173.725 79.351 173.579 79.2116 173.466 79.0463C173.354 78.881 173.278 78.6936 173.244 78.4966C173.21 78.2996 173.218 78.0976 173.268 77.9041Z" fill="#263238"/>
<path d="M175.392 79.0921C174.779 78.9272 174.13 78.9608 173.538 79.188C173.781 79.4486 174.104 79.6216 174.456 79.68C175.066 79.8455 175.713 79.814 176.304 79.59C176.063 79.3277 175.743 79.1525 175.392 79.0921Z" fill="#FF5652"/>
<path d="M173.4 77.9099C173.39 78.035 173.419 78.1602 173.483 78.2678C173.548 78.3755 173.645 78.4601 173.76 78.5099C174.687 78.7025 175.628 78.8169 176.574 78.8519C176.727 78.8691 176.882 78.8498 177.026 78.7956C177.169 78.7414 177.298 78.6537 177.402 78.5399C176.087 78.2236 174.749 78.013 173.4 77.9099Z" fill="white"/>
<path d="M183.348 79.272C183.009 79.5955 182.609 79.8485 182.171 80.0164C181.733 80.1843 181.267 80.2637 180.798 80.25C179.538 80.202 179.28 78.978 179.94 77.9941C180.6 77.0101 181.908 76.05 183.018 76.584C183.259 76.703 183.466 76.88 183.622 77.0991C183.777 77.3182 183.875 77.5724 183.908 77.839C183.941 78.1056 183.907 78.3761 183.809 78.6263C183.711 78.8764 183.553 79.0983 183.348 79.272Z" fill="#7F3E3B"/>
<path d="M178.422 75.246C178.32 75.534 178.08 75.708 177.888 75.642C177.696 75.576 177.636 75.276 177.744 74.988C177.852 74.7 178.086 74.526 178.278 74.598C178.47 74.67 178.53 74.958 178.422 75.246Z" fill="#263238"/>
<path d="M174.84 73.896C174.732 74.184 174.492 74.3579 174.306 74.2859C174.12 74.2139 174.054 73.926 174.156 73.638C174.258 73.35 174.504 73.17 174.69 73.242C174.876 73.314 174.942 73.608 174.84 73.896Z" fill="#263238"/>
<path d="M176.022 74.3579C175.326 75.0805 174.535 75.7043 173.67 76.2119C173.807 76.4303 173.989 76.6167 174.205 76.7585C174.42 76.9004 174.663 76.9943 174.918 77.0339L176.022 74.3579Z" fill="#630F0F"/>
<path d="M179.76 74.0159C179.789 74.0248 179.821 74.0248 179.85 74.0159C179.875 74.0132 179.899 74.0053 179.92 73.9926C179.942 73.9798 179.96 73.9626 179.974 73.9422C179.988 73.9217 179.998 73.8984 180.003 73.8738C180.007 73.8493 180.006 73.8241 180 73.7999C179.951 73.5157 179.834 73.2475 179.66 73.0177C179.486 72.788 179.258 72.6036 178.998 72.4799C178.954 72.4641 178.906 72.4659 178.863 72.4849C178.821 72.504 178.787 72.5387 178.77 72.5819C178.76 72.6035 178.755 72.6268 178.755 72.6505C178.754 72.6742 178.759 72.6977 178.768 72.7196C178.777 72.7415 178.79 72.7613 178.807 72.7779C178.824 72.7945 178.844 72.8074 178.866 72.8159C179.069 72.9181 179.246 73.0662 179.383 73.2484C179.519 73.4306 179.611 73.642 179.652 73.8659C179.655 73.8983 179.666 73.9294 179.685 73.9558C179.704 73.9822 179.73 74.003 179.76 74.0159Z" fill="#263238"/>
<path d="M174.042 71.9999C174.068 72.0127 174.097 72.0193 174.126 72.0193C174.155 72.0193 174.184 72.0127 174.21 71.9999C174.386 71.8586 174.593 71.7615 174.815 71.7166C175.036 71.6717 175.265 71.6804 175.482 71.7419C175.504 71.7504 175.528 71.7544 175.551 71.7535C175.575 71.7526 175.598 71.747 175.619 71.7369C175.64 71.7268 175.66 71.7124 175.675 71.6947C175.691 71.677 175.703 71.6564 175.71 71.6339C175.718 71.6119 175.722 71.5884 175.722 71.5648C175.721 71.5412 175.715 71.5181 175.705 71.4968C175.695 71.4754 175.68 71.4564 175.663 71.4408C175.645 71.4252 175.624 71.4133 175.602 71.4059C175.33 71.3224 175.041 71.306 174.761 71.3583C174.481 71.4105 174.218 71.5298 173.994 71.7059C173.974 71.7196 173.958 71.7371 173.945 71.7575C173.933 71.7778 173.925 71.8005 173.921 71.8241C173.918 71.8478 173.919 71.8718 173.926 71.8949C173.932 71.9179 173.943 71.9394 173.958 71.9579C173.981 71.9802 174.01 71.9949 174.042 71.9999Z" fill="#263238"/>
<path d="M189.42 92.8561C189.756 94.6561 189.984 96.3361 190.218 98.0821C190.452 99.8281 190.596 101.574 190.728 103.338C190.86 105.102 190.932 106.884 190.914 108.696C190.919 110.597 190.738 112.494 190.374 114.36L190.344 114.498C190.271 114.851 190.112 115.181 189.882 115.458C188.979 116.521 188.006 117.523 186.972 118.458C185.982 119.37 184.938 120.198 183.9 121.02C182.862 121.842 181.782 122.586 180.696 123.324C179.61 124.062 178.512 124.752 177.342 125.412C177.037 125.587 176.679 125.645 176.335 125.574C175.991 125.503 175.684 125.309 175.473 125.028C175.262 124.747 175.161 124.398 175.189 124.048C175.218 123.698 175.373 123.37 175.626 123.126L178.332 120.468C179.226 119.58 180.132 118.668 180.99 117.792C182.701 116.084 184.286 114.253 185.73 112.314L185.232 113.412C185.412 111.881 185.462 110.338 185.382 108.798C185.31 107.172 185.184 105.516 185.022 103.86C184.86 102.204 184.644 100.53 184.422 98.8621C184.2 97.1941 183.948 95.5081 183.708 93.8881V93.8521C183.609 93.1107 183.803 92.3601 184.247 91.7583C184.691 91.1565 185.351 90.7507 186.089 90.6262C186.826 90.5017 187.583 90.6684 188.2 91.0911C188.817 91.5138 189.246 92.1594 189.396 92.8921L189.42 92.8561Z" fill="#7F3E3B"/>
<path d="M185.802 88.5061C191.442 90.8341 190.806 98.8201 190.806 98.8201C188.748 101.424 186.462 103.458 183.48 103.71C181.877 101.951 181.017 99.6393 181.08 97.2601C181.104 94.0741 181.68 86.8081 185.802 88.5061Z" fill="white"/>
<path d="M177.762 121.836L173.922 122.07L175.482 126.42C175.482 126.42 178.938 125.784 178.896 123.894L177.762 121.836Z" fill="#7F3E3B"/>
<path d="M171.246 125.052L172.05 126.48C172.205 126.756 172.453 126.968 172.749 127.078C173.046 127.188 173.373 127.189 173.67 127.08L175.47 126.42L173.91 122.07L171.768 123.216C171.612 123.301 171.475 123.417 171.364 123.555C171.253 123.694 171.171 123.854 171.122 124.025C171.073 124.196 171.059 124.374 171.081 124.551C171.102 124.727 171.158 124.898 171.246 125.052Z" fill="#7F3E3B"/>
<path d="M180.984 86.4299C180.822 87.2939 180.096 90.1679 176.232 90.3959C177.576 90.8099 177.642 94.2779 177.642 94.2779C177.642 94.2779 181.842 90.7619 182.196 87.6239C182.076 86.8019 180.984 86.4299 180.984 86.4299Z" fill="#2174E3"/>
<path d="M175.44 85.0381C175.284 85.8781 174.006 87.3001 174.24 89.8381C172.89 89.4481 170.892 91.4941 170.892 91.4941C171.362 89.269 172.369 87.1927 173.826 85.4461C174.327 85.1926 174.878 85.0532 175.44 85.0381Z" fill="#2174E3"/>
</svg>
