<svg width="24" height="24" viewBox="0 0 24 24" fill="none" xmlns="http://www.w3.org/2000/svg">
<path d="M15.6172 3.99077V6.80219M15.6172 10.5942V13.4056M15.6172 17.2113V20.0228M1.55316 18.3085C1.55316 18.7631 1.73377 19.1992 2.05526 19.5207C2.37676 19.8422 2.81279 20.0228 3.26745 20.0228H20.7326C21.1872 20.0228 21.6233 19.8422 21.9448 19.5207C22.2663 19.1992 22.4469 18.7631 22.4469 18.3085V15.1542C21.7547 14.9657 21.1437 14.5548 20.7082 13.9848C20.2726 13.4147 20.0367 12.7173 20.0367 11.9999C20.0367 11.2825 20.2726 10.5851 20.7082 10.0151C21.1437 9.44503 21.7547 9.03411 22.4469 8.84562V5.69134C22.4469 5.23668 22.2663 4.80064 21.9448 4.47915C21.6233 4.15766 21.1872 3.97705 20.7326 3.97705H3.26745C2.81279 3.97705 2.37676 4.15766 2.05526 4.47915C1.73377 4.80064 1.55316 5.23668 1.55316 5.69134V8.83877C2.25122 9.02279 2.86874 9.4327 3.30937 10.0045C3.75 10.5764 3.98896 11.278 3.98896 11.9999C3.98896 12.7218 3.75 13.4234 3.30937 13.9953C2.86874 14.5671 2.25122 14.977 1.55316 15.1611V18.3085Z" stroke="#242424" stroke-width="1.5" stroke-linecap="round" stroke-linejoin="round"/>
</svg>
